<svg width="190" height="54" fill="none" xmlns="http://www.w3.org/2000/svg"><path d="M32 52.5c-3.151 1.85-6.641 1.902-10 .5-3.807-1.551-6.15-4.986-7.162-9.913v.025s-.115-.794-.702-.82c-.587-.011-.621.894-.621.894v-.024V54H0V0h16.678v13.961c0 .162.127.298.276.298h9.892c2.634 0 4.923 1.03 6.798 3.04 1.863 2.023 2.818 4.493 2.818 7.335v19.67c0 3.524-1.39 6.409-4.462 8.196ZM18.323 18.205c0-.16-.127-.297-.276-.297h-1.082c-.15 0-.276.136-.276.297v19.757c0 .93.45 1.502 1.312 1.625.092 0 .16 0 .218-.074a.31.31 0 0 0 .104-.223V18.193v.012ZM158 52.5c3.151 1.85 6.641 1.902 10 .5 3.807-1.551 6.15-4.986 7.162-9.913v.025s.115-.794.702-.82c.587-.011.621.894.621.894v-.024V54H190V0h-16.678v13.961c0 .162-.127.298-.276.298h-9.892c-2.634 0-4.923 1.03-6.798 3.04-1.863 2.023-2.817 4.493-2.817 7.335v19.67c0 3.524 1.39 6.409 4.461 8.196Zm13.677-34.295c0-.16.127-.297.276-.297h1.082c.149 0 .275.136.275.297v19.757c0 .93-.448 1.502-1.311 1.625-.092 0-.161 0-.218-.074a.31.31 0 0 1-.104-.223V18.193v.012ZM65.456 13.871c-2.635-.799-5.54-1.217-8.637-1.217-3.097 0-6.003.418-8.672 1.217-2.635.812-4.865 2.157-6.61 3.983-1.734 1.802-2.602 3.945-2.602 6.343V42.26c0 2.397.879 4.515 2.602 6.291 1.745 1.801 3.975 3.146 6.622 3.983 2.657.837 5.574 1.269 8.66 1.269 3.085 0 6.002-.432 8.637-1.269 2.613-.837 4.831-2.182 6.577-3.983 1.723-1.776 2.59-3.894 2.59-6.291V31.5H58.294v15.948c0 .951-.44 1.522-1.284 1.661a.321.321 0 0 1-.214-.076.377.377 0 0 1-.101-.228V31.884c0-.165 1.464-.119 1.61-.119l16.318.119v-7.7c0-2.397-.878-4.541-2.59-6.342-1.746-1.827-3.964-3.171-6.577-3.983v.012Zm-7.15 14.068c0 .165-.125.304-.271.304H56.82c-.135 0-.114-.14-.114-.304v-8.943c0-1.015.45-1.624 1.295-1.75.08 0 .147 0 .214.076.056.063.09.152.09.228v10.401-.012ZM141.999 14.213c-2.585-.796-5.434-1.213-8.46-1.213-3.027 0-5.898.417-8.505 1.213-2.595.81-4.782 2.149-6.494 3.969-1.69 1.795-2.54 3.93-2.54 6.32v17.997c0 2.389.861 4.5 2.54 6.268 1.712 1.795 3.899 3.135 6.494 3.969 2.607.834 5.467 1.264 8.505 1.264 3.037 0 5.875-.43 8.46-1.264 2.562-.834 4.738-2.174 6.45-3.969C150.15 46.998 151 44.887 151 42.5v-8.532h-16.015v13.7c0 .949-.441 1.518-1.27 1.657a.336.336 0 0 1-.21-.076.366.366 0 0 1-.088-.228V32.464c0-.165.122-.304.265-.304H151V24.49c0-2.39-.861-4.525-2.551-6.32-1.712-1.82-3.888-3.16-6.45-3.968v.012Zm-7.002 14.017c0 .164-.122.303-.266.303h-1.038c-.143 0-.265-.14-.265-.303v-8.91c0-1.012.431-1.618 1.259-1.745.089 0 .155 0 .21.076.066.063.1.152.1.227v10.364-.012ZM110.033 0 97.076 4.208V7.84c0 .075-.022.15-.076.2V53h16.927V14.046c0-.087.03-.15.073-.212L113.927.012h-3.894V0ZM95 13H77v40h18V13ZM92.405 1.627C90.65.55 88.49 0 86 0c-2.488 0-4.648.55-6.403 1.638C77.852 2.705 77 3.963 77 5.463s.852 2.78 2.597 3.878C81.352 10.451 83.512 11 86 11c2.49 0 4.65-.56 6.405-1.659C94.15 8.231 95 6.974 95 5.463c0-1.511-.85-2.758-2.595-3.836Z" fill="#EDF738"/><path d="M57.51 28v4" stroke="#000" stroke-width="1.59"/></svg>