<svg width="38" height="35" fill="#F5FD63" xmlns="http://www.w3.org/2000/svg"><path d="M14.478 0C7.245 0 1.398 5.848 1.398 13.045v.185c.73-.011 1.245-.104 1.673-.24.4-.127.743-.296 1.151-.512a10.232 10.232 0 0 1 3.196-6.875A10.286 10.286 0 0 1 14.476 2.8h9.158c5.476 0 9.962 4.29 10.27 9.682.404.215.744.383 1.14.509.43.137.947.23 1.684.239v-.188C36.714 5.846 30.855 0 23.636 0h-9.158Zm19.92 18.28c-.325-.073-.646-.16-.963-.262-.825-.263-1.6-.651-2.322-1.012a44.16 44.16 0 0 0-.636-.315c-.636-.305-1.295-.522-2.508-.522-.91 0-1.693.187-2.49.533-.287.13-.569.27-.845.42l-.018.008a17.6 17.6 0 0 1-.991.495 9.89 9.89 0 0 1-2.359.739h13.132v-.084ZM2.991 21l10.082 2.254c3.926.88 8.012.88 11.94 0L35.094 21h.344C36.804 21 38 22.207 38 23.8c0 1.593-1.196 2.8-2.562 2.8H2.661C1.296 26.6.1 25.393.1 23.8.1 22.207 1.296 21 2.66 21h.33Zm13.872-2.636H3.7v-.05c1.424-.293 2.412-.815 3.258-1.268l.028-.014c.503-.268.892-.474 1.356-.623.455-.144 1.01-.24 1.817-.24.807 0 1.36.096 1.813.24.463.147.85.352 1.35.62l.032.016c.895.48 1.948 1.036 3.509 1.319Z"/><path d="M23.439 5.28a1.082 1.082 0 0 1-1.079 1.082 1.077 1.077 0 0 1-1.078-1.081A1.082 1.082 0 0 1 22.36 4.2a1.077 1.077 0 0 1 1.079 1.08Zm-7.882 1.08a1.077 1.077 0 0 0 1.117-1.08 1.082 1.082 0 0 0-1.117-1.08 1.077 1.077 0 0 0-1.04 1.08 1.082 1.082 0 0 0 1.04 1.08Zm11.634 1.95a1.082 1.082 0 0 1-1.078 1.081 1.077 1.077 0 0 1-1.079-1.08 1.082 1.082 0 0 1 1.079-1.081 1.077 1.077 0 0 1 1.078 1.08ZM11.805 9.391a1.076 1.076 0 0 0 1.117-1.08 1.084 1.084 0 0 0-.693-1.01 1.076 1.076 0 0 0-1.464 1.01 1.082 1.082 0 0 0 1.04 1.08Zm7.154 1.235a1.078 1.078 0 0 0 1.078-1.08 1.082 1.082 0 0 0-1.078-1.082 1.077 1.077 0 0 0-1.079 1.081 1.082 1.082 0 0 0 1.079 1.081ZM1.587 29.646v-1.8c.337.1.692.153 1.062.153H4.38v1.646c0 1.536 1.104 2.554 2.202 2.554h24.724c1.1 0 2.217-1.022 2.228-2.575V28h1.732c.37 0 .727-.053 1.062-.153v1.792C36.311 32.484 34.182 35 31.31 35H6.58c-2.878 0-4.995-2.52-4.995-5.354h.001ZM10.11 12.25c-2.513 0-3.837.706-5.017 1.338l-.048.026c-.481.257-.97.52-1.564.71-.612.195-1.31.307-2.232.307-.687 0-1.249.56-1.249 1.26 0 .698.562 1.259 1.249 1.259 2.513 0 3.837-.706 5.017-1.338l.048-.026c.481-.257.97-.52 1.565-.71.61-.195 1.31-.307 2.231-.307.922 0 1.618.112 2.23.308.592.187 1.08.45 1.559.708l.05.027c1.18.632 2.504 1.338 5.024 1.338 1.824 0 3.017-.371 3.962-.8.324-.148.621-.305.925-.464l.006-.004c.3-.157.612-.322.934-.462a7.378 7.378 0 0 1 3.034-.651c1.426 0 2.291.267 3.105.662.25.12.49.24.723.358.694.35 1.331.67 2.04.896.963.31 1.969.467 2.98.465.688 0 1.25-.56 1.25-1.26 0-.697-.562-1.26-1.25-1.26-.921 0-1.617-.11-2.229-.305-.592-.19-1.08-.452-1.558-.71l-.049-.027c-.635-.341-1.28-.686-2.116-.942-.756-.23-1.683-.396-2.895-.396s-2.14.165-2.896.396c-.67.206-1.27.492-1.916.798-.262.123-.53.252-.812.378-.95.426-1.998.81-3.238.81-.926 0-1.626-.113-2.24-.309-.595-.19-1.084-.452-1.563-.71l-.046-.025c-1.178-.632-2.5-1.338-5.014-1.338Zm-6.25 7.514h30.184l-9.457 2.124c-3.711.833-7.56.833-11.272 0L3.86 19.764Z"/></svg>