<svg width="480" height="221" fill="none" xmlns="http://www.w3.org/2000/svg"><g clip-path="url('#clip0_47_93')" stroke="#EDF738" stroke-opacity=".4" stroke-width=".919"><path d="M-11.986 1.566c36.2 0 65.536 48.154 65.536 107.58 0 59.426-29.335 107.581-65.536 107.581"/><path d="M242.159 141.593c-25.84 8.454-58.659 13.642-92.801 13.642-87.382 0-158.286-32.625-158.286-72.89 0-40.264 70.904-72.89 158.286-72.89 38.324 0 65.401 3.415 92.801 13.873"/><path d="M242.159 195.301c-27.401 10.52-54.167 13.471-92.615 13.471-87.382 0-158.286-32.688-158.286-72.889 0-40.203 70.904-72.953 158.286-72.953 34.141 0 66.66 4.822 92.5 13.276M494.828 216.727c-36.201 0-65.536-48.155-65.536-107.581s29.335-107.58 65.536-107.58"/><path d="M241.857 76.522c25.841-8.454 57.485-13.464 91.627-13.464 87.382 0 158.286 32.625 158.286 72.89 0 40.264-70.842 72.889-158.286 72.889-38.324 0-63.925-3.078-91.325-13.536"/><path d="M242.159 23.328c27.4-10.52 52.814-14.06 91.262-14.06 87.382 0 158.286 32.624 158.286 72.89 0 40.263-70.842 72.888-158.286 72.888-34.141 0-65.422-4.999-91.262-13.453"/><path d="M244.541 217.541c79.836 0 144.556-48.53 144.556-108.395 0-59.865-64.72-108.395-144.556-108.395-79.834 0-144.554 48.53-144.554 108.395 0 59.865 64.72 108.395 144.554 108.395ZM242.17.751v216.79"/></g><defs><clipPath id="clip0_47_93"><path fill="#fff" transform="translate(-11.986)" d="M0 0h507.114v220.484H0z"/></clipPath></defs></svg>