<svg aria-hidden="true" style="width:0;height:0;position:absolute;overflow:hidden" xmlns="http://www.w3.org/2000/svg"><defs><symbol id="icon-boiled-icon-black" viewBox="0 0 113 32"><path d="M18.963 31.111c-1.868 1.096-3.936 1.127-5.926.296-2.256-.919-3.645-2.955-4.244-5.874v.015s-.068-.471-.416-.485c-.348-.007-.368.529-.368.529v-.015V32H0V0h9.883v8.273c0 .096.075.176.164.176h5.862c1.561 0 2.917.61 4.028 1.802 1.104 1.199 1.67 2.662 1.67 4.346v11.656c0 2.089-.824 3.798-2.644 4.857zm-8.105-20.323c0-.096-.075-.176-.164-.176h-.641c-.089 0-.164.081-.164.176v11.707c0 .552.266.89.777.963.054 0 .095 0 .129-.044a.183.183 0 0 0 .061-.132V10.788zM93.63 31.111c1.867 1.096 3.935 1.127 5.926.296 2.256-.919 3.644-2.955 4.244-5.874v.015s.068-.471.416-.485c.348-.007.368.529.368.529v-.015V32h8.009V0h-9.883v8.273c0 .096-.075.176-.164.176h-5.862c-1.561 0-2.917.61-4.028 1.802-1.104 1.199-1.669 2.662-1.669 4.346v11.656c0 2.089.824 3.798 2.644 4.857zm8.105-20.323c0-.096.075-.176.164-.176h.641c.088 0 .163.081.163.176v11.707c0 .552-.265.89-.777.963-.055 0-.095 0-.129-.044a.184.184 0 0 1-.062-.132V10.788zM38.789 8.22c-1.561-.474-3.283-.722-5.119-.722s-3.557.248-5.139.722c-1.562.481-2.883 1.278-3.917 2.36-1.028 1.067-1.541 2.338-1.541 3.758v10.704c0 1.421.521 2.676 1.541 3.728 1.034 1.067 2.356 1.864 3.924 2.36 1.575.496 3.303.752 5.132.752s3.557-.256 5.119-.752c1.548-.496 2.863-1.293 3.897-2.36 1.021-1.052 1.535-2.308 1.535-3.728v-6.376h-9.677v9.45c0 .564-.26.902-.761.985a.192.192 0 0 1-.127-.045.226.226 0 0 1-.06-.135V18.894c0-.098.867-.07.954-.07l9.67.07v-4.563c0-1.421-.521-2.691-1.535-3.758-1.034-1.082-2.349-1.879-3.897-2.36v.008zm-4.238 8.336c0 .098-.073.18-.16.18h-.72c-.08 0-.068-.083-.068-.18v-5.299c0-.601.267-.962.768-1.037.047 0 .087 0 .127.045.033.038.053.09.053.135v6.156zm49.597-8.133c-1.532-.472-3.22-.719-5.013-.719s-3.495.247-5.04.719c-1.538.479-2.834 1.273-3.848 2.352-1.001 1.064-1.505 2.329-1.505 3.745v10.665c0 1.416.51 2.666 1.505 3.715 1.015 1.064 2.311 1.857 3.848 2.352 1.545.494 3.24.749 5.04.749s3.481-.255 5.013-.749c1.518-.494 2.808-1.288 3.822-2.352 1.008-1.049 1.512-2.299 1.512-3.715v-5.056h-9.49v8.119c0 .562-.261.899-.753.981a.195.195 0 0 1-.124-.045.213.213 0 0 1-.052-.135v-9.811c0-.097.072-.18.157-.18h10.263v-4.546c0-1.416-.51-2.681-1.512-3.745-1.015-1.079-2.304-1.872-3.822-2.352v.007zm-4.15 8.306c0 .097-.072.18-.158.18h-.615c-.085 0-.157-.082-.157-.18v-5.28c0-.599.255-.959.746-1.034.053 0 .092 0 .124.045.039.037.059.09.059.135v6.134zM65.205 0l-7.678 2.493v2.153a.157.157 0 0 1-.045.118v26.643h10.031V8.323c0-.052.018-.089.043-.126l-.043-8.19h-2.308V0zm-8.909 7.704H45.629v23.704h10.667V7.704zM54.759.964C53.719.325 52.439 0 50.963 0c-1.474 0-2.754.326-3.794.971-1.034.632-1.539 1.378-1.539 2.267s.505 1.647 1.539 2.298c1.04.657 2.32.983 3.794.983 1.475 0 2.755-.332 3.796-.983 1.034-.657 1.538-1.403 1.538-2.298s-.504-1.634-1.538-2.273z"/><path fill="none" stroke="#fcf0c8" style="stroke:var(--color1,#fcf0c8)" stroke-width=".948" d="M34.074 16.593v2.963"/></symbol><symbol id="icon-boiled-icon-yellow" viewBox="0 0 113 32"><path fill="#edf738" style="fill:var(--color2,#edf738)" d="M18.963 31.111c-1.868 1.096-3.936 1.127-5.926.296-2.256-.919-3.645-2.955-4.244-5.874v.015s-.068-.471-.416-.485c-.348-.007-.368.529-.368.529v-.015V32H0V0h9.883v8.273c0 .096.075.176.164.176h5.862c1.561 0 2.917.61 4.028 1.802 1.104 1.199 1.67 2.662 1.67 4.346v11.656c0 2.089-.824 3.798-2.644 4.857zm-8.105-20.323c0-.096-.075-.176-.164-.176h-.641c-.089 0-.164.081-.164.176v11.707c0 .552.266.89.777.963.054 0 .095 0 .129-.044a.183.183 0 0 0 .061-.132V10.788zM93.63 31.111c1.867 1.096 3.935 1.127 5.926.296 2.256-.919 3.644-2.955 4.244-5.874v.015s.068-.471.416-.485c.348-.007.368.529.368.529v-.015V32h8.009V0h-9.883v8.273c0 .096-.075.177-.164.177h-5.862c-1.561 0-2.917.61-4.028 1.802-1.104 1.199-1.669 2.662-1.669 4.346v11.656c0 2.089.824 3.798 2.644 4.857zm8.105-20.323c0-.096.075-.177.164-.177h.641c.088 0 .163.081.163.177v11.707c0 .552-.265.89-.777.963-.055 0-.095 0-.129-.044a.184.184 0 0 1-.062-.132V10.788zM38.789 8.22c-1.561-.474-3.283-.722-5.119-.722s-3.557.248-5.139.722c-1.562.481-2.883 1.278-3.917 2.36-1.028 1.067-1.541 2.338-1.541 3.758v10.704c0 1.421.521 2.676 1.541 3.728 1.034 1.067 2.356 1.864 3.924 2.36 1.575.496 3.303.752 5.132.752s3.557-.256 5.119-.752c1.548-.496 2.863-1.293 3.897-2.36 1.021-1.052 1.535-2.308 1.535-3.728v-6.376h-9.677v9.45c0 .564-.26.902-.761.985a.192.192 0 0 1-.127-.045.226.226 0 0 1-.06-.135V18.894c0-.098.867-.07.954-.07l9.67.07v-4.563c0-1.421-.521-2.691-1.535-3.758-1.034-1.082-2.349-1.879-3.897-2.36v.007zm-4.238 8.336c0 .098-.073.18-.16.18h-.72c-.08 0-.068-.083-.068-.18v-5.299c0-.601.267-.962.768-1.037.047 0 .087 0 .127.045.033.038.053.09.053.135v6.156zm49.597-8.133c-1.532-.472-3.22-.719-5.013-.719s-3.495.247-5.04.719c-1.538.479-2.834 1.273-3.848 2.352-1.001 1.064-1.505 2.329-1.505 3.745v10.665c0 1.416.51 2.666 1.505 3.715 1.015 1.064 2.311 1.857 3.848 2.352 1.545.494 3.24.749 5.04.749s3.481-.255 5.013-.749c1.518-.494 2.808-1.288 3.822-2.352 1.008-1.048 1.512-2.299 1.512-3.715v-5.056h-9.49v8.119c0 .562-.261.899-.753.981a.195.195 0 0 1-.124-.045.213.213 0 0 1-.052-.135v-9.811c0-.097.072-.18.157-.18h10.263v-4.546c0-1.416-.51-2.681-1.512-3.745-1.015-1.078-2.304-1.872-3.822-2.352v.007zm-4.15 8.306c0 .097-.072.18-.158.18h-.615c-.085 0-.157-.082-.157-.18v-5.28c0-.599.255-.959.746-1.034.053 0 .092 0 .124.045.039.037.059.09.059.135v6.134zM65.205 0l-7.678 2.493v2.153a.157.157 0 0 1-.045.118v26.643h10.031V8.323c0-.052.018-.089.043-.126l-.043-8.19h-2.308V0zm-8.909 7.704H45.629v23.704h10.667V7.704zM54.759.964C53.719.325 52.439 0 50.963 0c-1.474 0-2.754.326-3.794.971-1.034.632-1.539 1.378-1.539 2.267s.505 1.647 1.539 2.298c1.04.657 2.32.983 3.794.983 1.475 0 2.755-.332 3.796-.983 1.034-.657 1.538-1.403 1.538-2.298s-.504-1.634-1.538-2.273z"/><path fill="none" stroke="#000" style="stroke:var(--color3,#000)" stroke-width=".942" d="M34.08 16.593v2.37"/></symbol><symbol id="icon-circle-gallery" viewBox="0 0 37 32"><path fill="none" stroke="#000" style="stroke:var(--color3,#000)" stroke-width=".942" d="M34.08 16.593v2.37"/></symbol><symbol id="icon-constellation-icon" viewBox="0 0 62 32"><path fill="none" stroke="#000" style="stroke:var(--color3,#000)" stroke-width=".942" d="M34.08 16.593v2.37"/></symbol><symbol id="icon-header-black-1x" viewBox="0 0 173 32"><path fill="none" stroke="#000" style="stroke:var(--color3,#000)" stroke-width=".942" d="M34.08 16.593v2.37"/></symbol><symbol id="icon-header-yellow-1x" viewBox="0 0 153 32"><path fill="none" stroke="#000" style="stroke:var(--color3,#000)" stroke-width=".942" d="M34.08 16.593v2.37"/></symbol><symbol id="icon-red-stars-icon" viewBox="0 0 62 32"><path fill="#dc2b46" style="fill:var(--color4,#dc2b46)" d="M33.889 10.603a.227.227 0 1 1-.454 0 .227.227 0 0 1 .454 0zM18.777 25.651a.227.227 0 1 1-.454 0 .227.227 0 0 1 .454 0zm-5.269 2.032a.227.227 0 1 1-.454 0 .227.227 0 0 1 .454 0zm-2.223-1.016a.227.227 0 1 1-.454 0 .227.227 0 0 1 .454 0zm5.405 1.523a.114.114 0 1 1-.228 0 .114.114 0 0 1 .228 0zm13.77-13.968a.227.227 0 1 1-.454 0 .227.227 0 0 1 .454 0zm7.936 0a.227.227 0 1 1-.454 0 .227.227 0 0 1 .454 0zM23.865 15.81a.114.114 0 1 1-.228 0 .114.114 0 0 1 .228 0zm-.643 3.301a.227.227 0 1 1-.454 0 .227.227 0 0 1 .454 0zm-1.016 1.016a.227.227 0 1 1-.454 0 .227.227 0 0 1 .454 0zm-9.397.508a.227.227 0 1 1-.454 0 .227.227 0 0 1 .454 0zm7.881.762a.114.114 0 1 1-.228 0 .114.114 0 0 1 .228 0zm18.722-1.333a.227.227 0 1 1-.454 0 .227.227 0 0 1 .454 0zm1.715 1.142a.227.227 0 1 1-.454 0 .227.227 0 0 1 .454 0zm-11.112-1.65a.227.227 0 1 1-.454 0 .227.227 0 0 1 .454 0zm1.659-1.905a.114.114 0 1 1-.228 0 .114.114 0 0 1 .228 0zm-.254.952a.114.114 0 1 1-.228 0 .114.114 0 0 1 .228 0zm-4.19 2.222a.114.114 0 1 1-.228 0 .114.114 0 0 1 .228 0zm2.087 2.413a.227.227 0 1 1-.454 0 .227.227 0 0 1 .454 0zm-3.048-5.841a.227.227 0 1 1-.454 0 .227.227 0 0 1 .454 0zm-7.293 6.984a.114.114 0 1 1-.228 0 .114.114 0 0 1 .228 0zm-9.46.254a.114.114 0 1 1-.228 0 .114.114 0 0 1 .228 0zm.825-1.905a.114.114 0 1 1-.228 0 .114.114 0 0 1 .228 0z"/></symbol><symbol id="icon-snack-icon" viewBox="0 0 98 32"><path fill="#dc2b46" style="fill:var(--color4,#dc2b46)" d="M10.341 22.73a.114.114 0 1 1-.228 0 .114.114 0 0 1 .228 0z"/></symbol><symbol id="icon-snacks-star-icon" viewBox="0 0 32 32"><path d="M15.597 7.652 12.505.028l.053 8.229L6.79 2.398 9.989 9.97 2.408 6.774l5.864 5.775-8.231-.063 7.623 3.091-7.623 3.102 8.231-.063-5.864 5.775 7.581-3.206-3.199 7.582 5.768-5.859-.053 8.23 3.092-7.624 3.092 7.624-.053-8.23 5.768 5.859-3.199-7.582 7.581 3.206-5.864-5.775 8.231.063-7.623-3.102 7.623-3.091-8.231.063 5.864-5.775-7.581 3.196 3.199-7.572-5.768 5.859.053-8.229-3.092 7.624z"/></symbol><symbol id="icon-spices-star-icon" viewBox="0 0 32 32"><path d="M15.597 7.652 12.505.028l.053 8.229L6.79 2.398 9.989 9.97 2.408 6.774l5.864 5.775-8.231-.063 7.623 3.091-7.623 3.102 8.231-.063-5.864 5.775 7.581-3.206-3.199 7.582 5.768-5.859-.053 8.23 3.092-7.624 3.092 7.624-.053-8.23 5.768 5.859-3.199-7.582 7.581 3.206-5.864-5.775 8.231.063-7.623-3.102 7.623-3.091-8.231.063 5.864-5.775-7.581 3.196 3.199-7.572-5.768 5.859.053-8.229-3.092 7.624z"/></symbol><symbol id="icon-star-icon-black" viewBox="0 0 32 32"><path fill="#dc2b46" d="M25.398 12.236c.547.173.859.466.931.883s-.083.861-.459 1.329c-.404.493-.891.823-1.445.984-2.132.587-4.578.649-7.336.177a18.23 18.23 0 0 1 6.517-3.344c.646-.186 1.24-.196 1.792-.027zm-7.425-6.197c.482-.357.97-.476 1.464-.358.386.116.676.451.885 1.011.171.586.17 1.158-.014 1.705-.555 1.769-1.915 3.877-4.07 6.325a16.306 16.306 0 0 1 .645-7.151 3.09 3.09 0 0 1 1.089-1.531zm5.439 16.336c.037.556-.112.996-.459 1.329-.314.301-.764.405-1.345.317a2.206 2.206 0 0 1-1.394-.682c-1.426-1.486-2.569-3.593-3.424-6.324 2.249.802 4.24 2.095 5.962 3.89.401.418.629.909.66 1.46zM7.939 9.925c-.035-.664.149-1.189.551-1.575.341-.327.862-.446 1.55-.356.661.116 1.211.403 1.639.849 1.289 1.343 2.378 3.427 3.264 6.234-2.94-1.059-4.998-2.203-6.181-3.436-.486-.506-.755-1.073-.822-1.717zm6.203 15.856c-.456.384-.906.521-1.346.404-.386-.116-.665-.44-.843-.967a2.707 2.707 0 0 1 .014-1.705c.802-2.492 1.961-4.545 3.484-6.164.415 2.614.314 4.889-.299 6.829-.214.692-.554 1.229-1.01 1.614zm-7.771-5.865c-.518-.254-.828-.632-.921-1.136-.1-.391.055-.835.459-1.328a3.044 3.044 0 0 1 1.443-.898c2.133-.587 4.545-.65 7.249-.178-2.337 1.861-4.537 3.094-6.61 3.677a2.196 2.196 0 0 1-1.621-.136z"/></symbol><symbol id="icon-star-icon-yellow" viewBox="0 0 32 32"><path fill="#edf738" style="fill:var(--color2,#edf738)" d="M25.398 12.236c.547.173.859.466.931.883s-.083.861-.459 1.329c-.404.493-.891.823-1.445.984-2.132.587-4.578.649-7.336.177a18.23 18.23 0 0 1 6.517-3.344c.646-.186 1.24-.196 1.792-.027zm-7.425-6.197c.482-.357.97-.476 1.464-.358.386.116.676.451.885 1.011.171.586.17 1.158-.014 1.705-.555 1.769-1.915 3.877-4.07 6.325a16.306 16.306 0 0 1 .645-7.151 3.09 3.09 0 0 1 1.089-1.531zm5.439 16.336c.037.556-.112.996-.459 1.329-.314.301-.764.405-1.345.317a2.206 2.206 0 0 1-1.394-.682c-1.426-1.486-2.569-3.593-3.424-6.324 2.249.802 4.24 2.095 5.962 3.89.401.418.629.909.66 1.46zM7.939 9.925c-.035-.664.149-1.189.551-1.575.341-.327.862-.446 1.55-.356.661.116 1.211.403 1.639.849 1.289 1.343 2.378 3.427 3.264 6.234-2.94-1.059-4.998-2.203-6.181-3.436-.486-.506-.755-1.073-.822-1.717zm6.203 15.856c-.456.384-.906.521-1.346.404-.386-.116-.665-.44-.843-.967a2.707 2.707 0 0 1 .014-1.705c.802-2.492 1.961-4.545 3.484-6.164.415 2.614.314 4.889-.299 6.829-.214.692-.554 1.229-1.01 1.614zm-7.771-5.865c-.518-.254-.828-.632-.921-1.136-.1-.391.055-.835.459-1.328a3.044 3.044 0 0 1 1.443-.898c2.133-.587 4.545-.65 7.249-.178-2.337 1.861-4.537 3.094-6.61 3.677a2.196 2.196 0 0 1-1.621-.136z"/></symbol><symbol id="icon-g-icon-breakfast" viewBox="0 0 28 32"><path fill="#e8e8e8" style="fill:var(--color1,#e8e8e8)" d="m13.817 14.394-.619 14.227h2.047l-.619-14.227h-.809zM13.198.167h2.047l-.619 14.227h-.809L13.198.167z"/><path fill="#e8e8e8" style="fill:var(--color1,#e8e8e8)" d="M28.444 13.375v2.037l-14.227-.619v-.799l14.227-.619z"/><path fill="#e8e8e8" style="fill:var(--color1,#e8e8e8)" d="M0 15.412v-2.037l14.217.619v.799L0 15.412z"/><path fill="#e8e8e8" style="fill:var(--color1,#e8e8e8)" d="m25 23.729-1.438 1.448-9.625-10.503.569-.569 10.493 9.624z"/><path fill="#e8e8e8" style="fill:var(--color1,#e8e8e8)" d="m3.444 5.059 1.438-1.448 9.625 10.493-.569.569L3.445 5.058z"/><path fill="#e8e8e8" style="fill:var(--color1,#e8e8e8)" d="M23.562 3.611 25 5.059l-10.493 9.615-.569-.569 9.625-10.493zM4.882 25.177l-1.438-1.448 10.493-9.624.569.579-9.625 10.493z"/></symbol><symbol id="icon-g-icon-dinner" viewBox="0 0 30 32"><path fill="#e8e8e8" style="fill:var(--color1,#e8e8e8)" d="m14.306 9.1-2.827-7.406.049 7.994-5.274-5.691 2.924 7.355-6.931-3.104 5.361 5.61-7.525-.061 6.97 3.003-6.97 3.013 7.525-.061-5.361 5.61 6.931-3.114-2.924 7.365 5.274-5.691-.049 7.994 2.827-7.406 2.827 7.406-.049-7.994 5.274 5.691-2.924-7.365 6.931 3.114-5.361-5.61 7.525.061-6.97-3.013 6.97-3.003-7.525.061 5.361-5.61-6.931 3.104 2.924-7.355-5.274 5.691.049-7.994L14.306 9.1z"/></symbol><symbol id="icon-g-icon-square" viewBox="0 0 34 32"><path fill="#e8e8e8" style="fill:var(--color1,#e8e8e8)" d="M34.133.2H0v31.639h34.133V.2z"/></symbol><symbol id="icon-g-icon-star-desert" viewBox="0 0 28 32"><path fill="#e8e8e8" style="fill:var(--color1,#e8e8e8)" d="M20.879 16.805c0 3.743-2.855 6.766-6.368 6.766s-6.368-3.033-6.368-6.766 2.854-6.766 6.368-6.766 6.368 3.033 6.368 6.766z"/><path fill="none" stroke="#e8e8e8" style="stroke:var(--color1,#e8e8e8)" stroke-miterlimit="10" stroke-width=".64" d="M14.512 23.571c3.517 0 6.368-3.029 6.368-6.766s-2.851-6.766-6.368-6.766c-3.517 0-6.368 3.029-6.368 6.766s2.851 6.766 6.368 6.766z"/><path fill="none" stroke="#e8e8e8" style="stroke:var(--color1,#e8e8e8)" stroke-miterlimit="10" stroke-width="1.92" d="M14.222 1.694v30.222M0 16.806h28.444"/><symbol id="icon-modal-X" viewBox="0 0 32 32"><path fill="none" stroke="#f5fd63" style="stroke:var(--color1,#f5fd63)" stroke-width=".64" d="M31.68 16c0 8.66-7.02 15.68-15.68 15.68S.32 24.66.32 16 7.34.32 16 .32 31.68 7.34 31.68 16z"/><path fill="#f5fd63" style="fill:var(--color1,#f5fd63)" d="m11.6 6.865 4.5 7.443 4.5-7.443h2.352l-5.614 8.727 5.614 8.727H20.6l-4.5-7.205-4.5 7.205H9.259l5.545-8.727-5.545-8.727H11.6z"/></symbol><symbol id="icon-facebook" viewBox="0 0 31 32"><path fill="#e8e8e8" style="fill:var(--color1,#e8e8e8)" d="M17.28 11.494v-3.84c0-1.06.86-1.92 1.92-1.92h1.92v-4.8h-3.84a5.76 5.76 0 0 0-5.76 5.76v4.8H7.68v4.8h3.84v15.36h5.76v-15.36h3.84l1.92-4.8h-5.76z"/></symbol><symbol id="icon-instagram" viewBox="0 0 31 32"><path fill="#e8e8e8" style="fill:var(--color1,#e8e8e8)" d="M21.12.934H9.6c-5.301 0-9.6 4.299-9.6 9.6v11.52c0 5.301 4.299 9.6 9.6 9.6h11.52c5.301 0 9.6-4.299 9.6-9.6v-11.52c0-5.301-4.299-9.6-9.6-9.6zm6.72 21.12a6.727 6.727 0 0 1-6.72 6.72H9.6a6.727 6.727 0 0 1-6.72-6.72v-11.52a6.727 6.727 0 0 1 6.72-6.72h11.52a6.727 6.727 0 0 1 6.72 6.72v11.52z"/><path fill="#e8e8e8" style="fill:var(--color1,#e8e8e8)" d="M15.36 8.614a7.68 7.68 0 1 0 .001 15.361 7.68 7.68 0 0 0-.001-15.361zm0 12.48a4.806 4.806 0 0 1-4.8-4.8c0-2.648 2.154-4.8 4.8-4.8s4.8 2.152 4.8 4.8c0 2.646-2.154 4.8-4.8 4.8zm8.256-12.032a1.023 1.023 0 1 0 0-2.046 1.023 1.023 0 0 0 0 2.046z"/></symbol><symbol id="icon-linkedin" viewBox="0 0 31 32"><path fill="#e8e8e8" style="fill:var(--color1,#e8e8e8)" d="M6.87 10.534H0v21.12h6.87v-21.12zm18.712.248c-.073-.023-.142-.048-.219-.069a5.055 5.055 0 0 0-.278-.054 6.154 6.154 0 0 0-1.233-.125c-4.005 0-6.545 2.913-7.382 4.038v-4.038H9.6v21.12h6.87v-11.52s5.192-7.231 7.382-1.92v13.44h6.868V17.402c0-3.191-2.187-5.85-5.138-6.62zM3.36 7.654a3.36 3.36 0 1 0 0-6.72 3.36 3.36 0 0 0 0 6.72z"/></symbol><symbol id="icon-pinterest" viewBox="0 0 31 32"><path fill="#e8e8e8" style="fill:var(--color1,#e8e8e8)" d="M15.777.934C7.357.934 2.88 6.329 2.88 12.213c0 2.729 1.525 6.131 3.965 7.21.371.167.572.096.655-.248.073-.261.394-1.519.549-2.112a.543.543 0 0 0-.131-.534c-.81-.937-1.454-2.644-1.454-4.245 0-4.103 3.262-8.087 8.813-8.087 4.8 0 8.158 3.118 8.158 7.579 0 5.04-2.667 8.527-6.133 8.527-1.918 0-3.347-1.505-2.894-3.368.547-2.218 1.621-4.602 1.621-6.202 0-1.434-.81-2.621-2.465-2.621-1.953 0-3.537 1.934-3.537 4.53 0 1.649.584 2.763.584 2.763s-1.932 7.803-2.291 9.261c-.607 2.467.083 6.463.142 6.807.036.19.25.25.369.094.19-.25 2.525-3.581 3.18-5.989.238-.878 1.215-4.435 1.215-4.435.643 1.162 2.5 2.135 4.478 2.135 5.883 0 10.134-5.171 10.134-11.588C27.817 5.538 22.552.936 15.776.936z"/></symbol><symbol id="icon-spotify" viewBox="0 0 31 32"><path fill="#e8e8e8" style="fill:var(--color1,#e8e8e8)" d="M15.36.934C6.891.934 0 7.825 0 16.294s6.891 15.36 15.36 15.36 15.36-6.891 15.36-15.36S23.829.934 15.36.934zm7.046 22.173a.958.958 0 0 1-1.336.234c-3.6-2.531-9.588-2.671-13.632-1.728a.96.96 0 0 1-.434-1.872c4.445-1.029 11.088-.841 15.168 2.029a.959.959 0 0 1 .234 1.336zm1.874-3.746a.959.959 0 0 1-1.341.219c-4.176-2.997-9.306-3.742-16.153-2.344a.964.964 0 0 1-1.133-.749.959.959 0 0 1 .747-1.133c7.405-1.511 13.016-.666 17.658 2.665.43.311.53.91.221 1.342zm1.893-5.031a.958.958 0 0 1-.795.42.97.97 0 0 1-.54-.165c-5.293-3.592-13.34-3.61-18.549-1.766a.963.963 0 0 1-1.225-.588.959.959 0 0 1 .586-1.225c5.666-2.003 14.446-1.96 20.269 1.989a.962.962 0 0 1 .253 1.334z"/></symbol><symbol id="icon-youtube" viewBox="0 0 32 32"><path fill="none" stroke="#fff" style="stroke:var(--color2,#fff)" stroke-linejoin="round" stroke-linecap="round" stroke-miterlimit="10" stroke-width="2" d="M22.667 26.667H9.334c-4 0-6.667-2.667-6.667-6.667v-8c0-4 2.667-6.667 6.667-6.667h13.333c4 0 6.667 2.667 6.667 6.667v8c0 4-2.667 6.667-6.667 6.667z"/><path fill="none" stroke="#fff" style="stroke:var(--color2,#fff)" stroke-linejoin="round" stroke-linecap="round" stroke-miterlimit="10" stroke-width="2" d="m15.199 12.666 3.333 2c1.2.8 1.2 2 0 2.8l-3.333 2c-1.333.8-2.4.133-2.4-1.333v-4c0-1.733 1.067-2.267 2.4-1.467z"/></symbol><symbol id="icon-icon-send" viewBox="0 0 32 32"><path fill="#fff" style="fill:var(--color2,#fff)" d="M32 0 0 18l10.227 3.788L26 7 14.002 23.186l.01.004-.012-.004V32l5.735-6.691L27 28l5-28z"/></symbol></symbol></defs></svg>