<svg width="45" height="45" fill="none" xmlns="http://www.w3.org/2000/svg"><path d="M22.5 34.286c-6.51 0-11.786-5.277-11.786-11.786 0-6.51 5.277-11.786 11.786-11.786 6.51 0 11.786 5.277 11.786 11.786 0 6.51-5.277 11.786-11.786 11.786Zm0-2.143a9.643 9.643 0 1 0 0-19.286 9.643 9.643 0 0 0 0 19.286ZM23.571 7.5a1.071 1.071 0 1 1-2.142 0V1.071a1.071 1.071 0 1 1 2.142 0V7.5Zm0 36.429a1.071 1.071 0 0 1-2.142 0V37.5a1.071 1.071 0 0 1 2.142 0v6.429ZM33.864 12.65a1.071 1.071 0 0 1-1.515-1.515l4.393-4.394a1.071 1.071 0 1 1 1.516 1.516l-4.394 4.393ZM8.258 38.258a1.071 1.071 0 0 1-1.516-1.516l4.394-4.393a1.071 1.071 0 0 1 1.515 1.515l-4.393 4.394ZM37.5 23.57a1.071 1.071 0 0 1 0-2.142h6.429a1.071 1.071 0 0 1 0 2.142H37.5Zm-36.429 0a1.071 1.071 0 1 1 0-2.142H7.5a1.071 1.071 0 1 1 0 2.142H1.071ZM32.35 33.864a1.071 1.071 0 0 1 1.515-1.515l4.394 4.393a1.071 1.071 0 0 1-1.516 1.516l-4.393-4.394ZM6.742 8.258a1.071 1.071 0 1 1 1.516-1.516l4.393 4.394a1.071 1.071 0 0 1-1.515 1.515L6.742 8.258Z" fill="#F5FD63"/></svg>