<svg width="24" height="25" fill="none" xmlns="http://www.w3.org/2000/svg"><path d="M16.5.73h-9A7.5 7.5 0 0 0 0 8.23v9a7.5 7.5 0 0 0 7.5 7.5h9a7.5 7.5 0 0 0 7.5-7.5v-9a7.5 7.5 0 0 0-7.5-7.5Zm5.25 16.5a5.256 5.256 0 0 1-5.25 5.25h-9a5.256 5.256 0 0 1-5.25-5.25v-9A5.256 5.256 0 0 1 7.5 2.98h9a5.256 5.256 0 0 1 5.25 5.25v9Z" fill="#E8E8E8"/><path d="M12 6.73a6 6 0 1 0 0 12 6 6 0 0 0 0-12Zm0 9.75a3.755 3.755 0 0 1-3.75-3.75A3.754 3.754 0 0 1 12 8.98a3.754 3.754 0 0 1 3.75 3.75A3.755 3.755 0 0 1 12 16.48ZM18.45 7.08a.8.8 0 1 0 0-1.6.8.8 0 0 0 0 1.6Z" fill="#E8E8E8"/></svg>