<svg width="24" height="25" fill="none" xmlns="http://www.w3.org/2000/svg"><path d="M12.326.73C5.748.73 2.25 4.945 2.25 9.541c0 2.132 1.191 4.79 3.098 5.633.29.13.447.075.511-.193.057-.204.308-1.187.43-1.65a.424.424 0 0 0-.103-.417c-.633-.732-1.135-2.066-1.135-3.317 0-3.206 2.548-6.318 6.885-6.318 3.75 0 6.374 2.436 6.374 5.92 0 3.938-2.084 6.662-4.791 6.662-1.5 0-2.615-1.176-2.261-2.631.427-1.732 1.266-3.596 1.266-4.845 0-1.12-.633-2.048-1.926-2.048-1.526 0-2.763 1.51-2.763 3.539 0 1.288.456 2.159.456 2.159S6.78 18.13 6.5 19.268c-.474 1.928.065 5.05.111 5.318.029.149.195.195.288.074.149-.195 1.973-2.798 2.484-4.68.186-.685.95-3.464.95-3.464.502.907 1.953 1.668 3.498 1.668 4.596 0 7.917-4.04 7.917-9.053C21.733 4.326 17.62.73 12.326.73Z" fill="#E8E8E8"/></svg>