<svg width="38" height="35" viewBox="0 0 38 35" fill="#F5FD63" xmlns="http://www.w3.org/2000/svg">
<path d="M14.4779 0C7.24452 0 1.39805 5.8478 1.39805 13.0452V13.23C2.12798 13.2188 2.64314 13.1264 3.07128 12.9906C3.47134 12.8632 3.81384 12.6938 4.22232 12.4782C4.3673 9.86349 5.51079 7.40343 7.41788 5.60346C9.32496 3.80349 11.8508 2.8003 14.4765 2.8H23.6343C29.1102 2.8 33.5965 7.0896 33.9039 12.4824C34.3082 12.6966 34.6479 12.8646 35.0437 12.9906C35.4733 13.1278 35.9912 13.2202 36.7282 13.23V13.0424C36.7141 5.8464 30.855 0 23.6357 0H14.4779ZM34.398 18.2798C34.0733 18.2066 33.7521 18.1193 33.4351 18.018C32.6097 17.7548 31.8348 17.367 31.1133 17.0058C30.9022 16.8991 30.6902 16.7941 30.4774 16.6908C29.8415 16.3856 29.1818 16.1686 27.969 16.1686C27.0594 16.1686 26.2761 16.3562 25.4788 16.702C25.1921 16.8316 24.9102 16.9717 24.6338 17.122L24.6155 17.1304C24.3179 17.2872 23.9881 17.4608 23.6245 17.6246C22.8726 17.9686 22.0803 18.2169 21.2662 18.3638H34.398V18.2798ZM2.99126 21L13.0728 23.254C16.9989 24.1332 21.0852 24.1332 25.0128 23.254L35.0943 21H35.4382C36.804 21 37.9999 22.2068 37.9999 23.8C37.9999 25.3932 36.804 26.6 35.4382 26.6H2.66139C1.29558 26.6 0.0996094 25.3932 0.0996094 23.8C0.0996094 22.2068 1.29558 21 2.66139 21H2.99126ZM16.8628 18.3638H3.70014V18.3148C5.12351 18.0208 6.11173 17.4986 6.95817 17.0464L6.98624 17.0324C7.48877 16.7636 7.8776 16.5578 8.34223 16.4094C8.79703 16.2652 9.35291 16.1686 10.1586 16.1686C10.9658 16.1686 11.5188 16.2652 11.9722 16.4094C12.4355 16.5564 12.8215 16.7608 13.3226 17.0296L13.3535 17.045C14.2491 17.5252 15.3019 18.081 16.8628 18.3638Z" fill="#F5FD63"/>
<path d="M23.439 5.28081C23.439 5.56746 23.3254 5.84236 23.1231 6.04505C22.9208 6.24774 22.6465 6.36161 22.3605 6.36161C22.0745 6.36161 21.8001 6.24774 21.5979 6.04505C21.3956 5.84236 21.282 5.56746 21.282 5.28081C21.282 4.99416 21.3956 4.71926 21.5979 4.51657C21.8001 4.31388 22.0745 4.20001 22.3605 4.20001C22.6465 4.20001 22.9208 4.31388 23.1231 4.51657C23.3254 4.71926 23.439 4.99416 23.439 5.28081ZM15.5571 6.36021C15.7019 6.36544 15.8462 6.34137 15.9816 6.28944C16.1169 6.23751 16.2404 6.15879 16.3446 6.05798C16.4489 5.95717 16.5319 5.83633 16.5885 5.70268C16.6452 5.56904 16.6744 5.42532 16.6744 5.28011C16.6744 5.1349 16.6452 4.99119 16.5885 4.85754C16.5319 4.72389 16.4489 4.60305 16.3446 4.50224C16.2404 4.40143 16.1169 4.32271 15.9816 4.27078C15.8462 4.21885 15.7019 4.19479 15.5571 4.20001C15.2779 4.21008 15.0136 4.32829 14.8197 4.52975C14.6258 4.7312 14.5174 5.0002 14.5174 5.28011C14.5174 5.56002 14.6258 5.82902 14.8197 6.03047C15.0136 6.23193 15.2779 6.35014 15.5571 6.36021ZM27.1913 8.31041C27.1913 8.59706 27.0777 8.87196 26.8755 9.07465C26.6732 9.27734 26.3989 9.39121 26.1129 9.39121C25.8268 9.39121 25.5525 9.27734 25.3502 9.07465C25.148 8.87196 25.0344 8.59706 25.0344 8.31041C25.0344 8.02376 25.148 7.74886 25.3502 7.54617C25.5525 7.34348 25.8268 7.22961 26.1129 7.22961C26.3989 7.22961 26.6732 7.34348 26.8755 7.54617C27.0777 7.74886 27.1913 8.02376 27.1913 8.31041ZM11.8047 9.39121C11.9495 9.39644 12.0939 9.37237 12.2292 9.32044C12.3645 9.26851 12.488 9.18979 12.5923 9.08898C12.6966 8.98817 12.7795 8.86733 12.8362 8.73368C12.8928 8.60003 12.922 8.45632 12.922 8.31111C12.922 8.1659 12.8928 8.02219 12.8362 7.88854C12.7795 7.75489 12.6966 7.63405 12.5923 7.53324C12.488 7.43243 12.3645 7.35371 12.2292 7.30178C12.0939 7.24985 11.9495 7.22578 11.8047 7.23101C11.5256 7.24108 11.2612 7.35929 11.0673 7.56075C10.8734 7.7622 10.765 8.0312 10.765 8.31111C10.765 8.59102 10.8734 8.86002 11.0673 9.06148C11.2612 9.26293 11.5256 9.38114 11.8047 9.39121ZM18.9588 10.626C19.2448 10.626 19.5191 10.5121 19.7214 10.3095C19.9236 10.1068 20.0373 9.83186 20.0373 9.54521C20.0373 9.25856 19.9236 8.98366 19.7214 8.78097C19.5191 8.57828 19.2448 8.46441 18.9588 8.46441C18.6727 8.46441 18.3984 8.57828 18.1962 8.78097C17.9939 8.98366 17.8803 9.25856 17.8803 9.54521C17.8803 9.83186 17.9939 10.1068 18.1962 10.3095C18.3984 10.5121 18.6727 10.626 18.9588 10.626ZM1.587 29.6464V27.846C1.92368 27.9454 2.27852 27.9986 2.64872 27.9986H4.38101V29.645C4.38101 31.1808 5.48465 32.1986 6.5827 32.1986H31.3069C32.4064 32.1986 33.524 31.1766 33.5351 29.624V28H35.2674C35.6376 28 35.9939 27.9468 36.3292 27.8474V29.6394C36.311 32.4842 34.182 35 31.3083 35H6.5813C3.70346 35 1.5856 32.48 1.5856 29.6464H1.587ZM10.1101 12.25C7.59692 12.25 6.27256 12.9556 5.09349 13.5884L5.04459 13.6136C4.56402 13.8712 4.07507 14.1344 3.48134 14.3234C2.86945 14.5194 2.17095 14.6314 1.24892 14.6314C0.561597 14.6314 0 15.1914 0 15.8914C0 16.5886 0.561597 17.15 1.24892 17.15C3.76214 17.15 5.0865 16.4444 6.26557 15.8116L6.31447 15.7864C6.79504 15.5288 7.28399 15.2656 7.87912 15.0766C8.48961 14.8806 9.18811 14.7686 10.1101 14.7686C11.0322 14.7686 11.7279 14.8806 12.3398 15.0766C12.9321 15.2642 13.4196 15.5274 13.8988 15.785L13.9491 15.8116C15.1282 16.4444 16.4525 17.15 18.9727 17.15C20.7972 17.15 21.9903 16.779 22.9347 16.3492C23.2588 16.2022 23.5563 16.0454 23.8595 15.8858L23.8665 15.8816C24.1654 15.7248 24.4783 15.5596 24.7997 15.4196C25.7537 14.9899 26.788 14.768 27.834 14.7686C29.2603 14.7686 30.125 15.036 30.9395 15.4308C31.1896 15.5512 31.4285 15.6716 31.6618 15.7892C32.3561 16.1392 32.9931 16.4584 33.7014 16.6852C34.6648 16.9954 35.6707 17.1522 36.6826 17.15C37.3699 17.15 37.9315 16.59 37.9315 15.89C37.9315 15.1928 37.3699 14.63 36.6826 14.63C35.7606 14.63 35.0649 14.5194 34.453 14.3248C33.8606 14.1344 33.3731 13.8726 32.8953 13.615L32.8464 13.5884C32.2108 13.2468 31.5654 12.9024 30.73 12.6462C29.9742 12.4152 29.0466 12.25 27.8354 12.25C26.6228 12.25 25.6951 12.4152 24.9394 12.6462C24.2688 12.852 23.6681 13.1376 23.0227 13.4442C22.7614 13.5674 22.4932 13.6962 22.211 13.8222C21.261 14.2478 20.2133 14.6314 18.9727 14.6314C18.0465 14.6314 17.3466 14.5194 16.7333 14.3234C16.1382 14.133 15.6493 13.8712 15.1701 13.6136L15.124 13.5884C13.9463 12.9556 12.6234 12.25 10.1101 12.25ZM3.85993 19.7638H34.0437L24.5873 21.8876C20.8758 22.7209 17.0264 22.7209 13.3149 21.8876L3.85993 19.7638Z" fill="#F5FD63"/>
</svg>
