<svg width="1263" height="264" viewBox="0 0 1263 264" fill="none" xmlns="http://www.w3.org/2000/svg">
<g clip-path="url(#clip0_5_510)">
<path d="M376.568 4.21397C412.769 4.21397 442.105 52.3686 442.105 111.795C442.105 171.221 412.769 219.375 376.568 219.375" stroke="#EDF738" stroke-opacity="0.4" stroke-width="0.918685"/>
<path d="M630.714 144.242C604.874 152.695 572.055 157.883 537.913 157.883C450.531 157.883 379.627 125.258 379.627 84.9935C379.627 44.7289 450.531 12.104 537.913 12.104C576.236 12.104 603.314 15.5185 630.714 25.976" stroke="#EDF738" stroke-opacity="0.4" stroke-width="0.918685"/>
<path d="M630.713 197.95C603.313 208.47 576.547 211.421 538.099 211.421C450.717 211.421 379.812 178.733 379.812 138.531C379.812 98.3286 450.717 65.5788 538.099 65.5788C572.24 65.5788 604.759 70.4005 630.599 78.8542" stroke="#EDF738" stroke-opacity="0.4" stroke-width="0.918685"/>
<path d="M883.383 219.375C847.182 219.375 817.847 171.221 817.847 111.795C817.847 52.3686 847.182 4.21397 883.383 4.21397" stroke="#EDF738" stroke-opacity="0.4" stroke-width="0.918685"/>
<path d="M630.412 79.1699C656.253 70.7162 687.897 65.7066 722.039 65.7066C809.421 65.7066 880.325 98.3313 880.325 138.596C880.325 178.86 809.483 211.486 722.039 211.486C683.715 211.486 658.114 208.407 630.713 197.95" stroke="#EDF738" stroke-opacity="0.4" stroke-width="0.918685"/>
<path d="M630.714 25.9761C658.114 15.456 683.528 11.916 721.976 11.916C809.358 11.916 880.262 44.5409 880.262 84.8055C880.262 125.07 809.42 157.695 721.976 157.695C687.835 157.695 656.554 152.695 630.714 144.242" stroke="#EDF738" stroke-opacity="0.4" stroke-width="0.918685"/>
<path d="M633.096 220.189C712.932 220.189 777.651 171.66 777.651 111.795C777.651 51.9298 712.932 3.39981 633.096 3.39981C553.262 3.39981 488.542 51.9298 488.542 111.795C488.542 171.66 553.262 220.189 633.096 220.189Z" stroke="#EDF738" stroke-opacity="0.4" stroke-width="0.918685"/>
<path d="M630.725 3.39981V220.189" stroke="#EDF738" stroke-opacity="0.4" stroke-width="0.918685"/>
</g>
<defs>
<clipPath id="clip0_5_510">
<rect width="507.114" height="220.484" fill="white" transform="translate(376.568 2.64844)"/>
</clipPath>
</defs>
</svg>
