<svg width="480" height="221" viewBox="0 0 480 221" fill="none" xmlns="http://www.w3.org/2000/svg">
<g clip-path="url(#clip0_47_93)">
<path d="M-11.9863 1.56555C24.2147 1.56555 53.5501 49.7202 53.5501 109.146C53.5501 168.572 24.2147 216.727 -11.9863 216.727" stroke="#EDF738" stroke-opacity="0.4" stroke-width="0.918685"/>
<path d="M242.159 141.593C216.319 150.047 183.5 155.235 149.358 155.235C61.9765 155.235 -8.92773 122.61 -8.92773 82.345C-8.92773 42.0805 61.9765 9.45557 149.358 9.45557C187.682 9.45557 214.759 12.87 242.159 23.3275" stroke="#EDF738" stroke-opacity="0.4" stroke-width="0.918685"/>
<path d="M242.159 195.301C214.758 205.821 187.992 208.772 149.544 208.772C62.162 208.772 -8.74219 176.084 -8.74219 135.883C-8.74219 95.6801 62.162 62.9304 149.544 62.9304C183.685 62.9304 216.204 67.7521 242.044 76.2057" stroke="#EDF738" stroke-opacity="0.4" stroke-width="0.918685"/>
<path d="M494.828 216.727C458.627 216.727 429.292 168.572 429.292 109.146C429.292 49.7202 458.627 1.56555 494.828 1.56555" stroke="#EDF738" stroke-opacity="0.4" stroke-width="0.918685"/>
<path d="M241.857 76.5215C267.698 68.0678 299.342 63.0582 333.484 63.0582C420.866 63.0582 491.77 95.6829 491.77 135.948C491.77 176.212 420.928 208.837 333.484 208.837C295.16 208.837 269.559 205.759 242.159 195.301" stroke="#EDF738" stroke-opacity="0.4" stroke-width="0.918685"/>
<path d="M242.159 23.3276C269.559 12.8076 294.973 9.26761 333.421 9.26761C420.803 9.26761 491.707 41.8925 491.707 82.1571C491.707 122.421 420.865 155.046 333.421 155.046C299.28 155.046 267.999 150.047 242.159 141.593" stroke="#EDF738" stroke-opacity="0.4" stroke-width="0.918685"/>
<path d="M244.541 217.541C324.377 217.541 389.097 169.011 389.097 109.146C389.097 49.2814 324.377 0.751373 244.541 0.751373C164.707 0.751373 99.9873 49.2814 99.9873 109.146C99.9873 169.011 164.707 217.541 244.541 217.541Z" stroke="#EDF738" stroke-opacity="0.4" stroke-width="0.918685"/>
<path d="M242.17 0.751373V217.541" stroke="#EDF738" stroke-opacity="0.4" stroke-width="0.918685"/>
</g>
<defs>
<clipPath id="clip0_47_93">
<rect width="507.114" height="220.484" fill="white" transform="translate(-11.9863)"/>
</clipPath>
</defs>
</svg>
