<svg width="45" height="45" viewBox="0 0 45 45" fill="none" xmlns="http://www.w3.org/2000/svg">
<path d="M22.5 34.2857C15.9909 34.2857 10.7143 29.0091 10.7143 22.5C10.7143 15.9909 15.9909 10.7143 22.5 10.7143C29.0091 10.7143 34.2857 15.9909 34.2857 22.5C34.2857 29.0091 29.0091 34.2857 22.5 34.2857ZM22.5 32.1429C27.8256 32.1429 32.1429 27.8256 32.1429 22.5C32.1429 17.1744 27.8256 12.8571 22.5 12.8571C17.1744 12.8571 12.8571 17.1744 12.8571 22.5C12.8571 27.8256 17.1744 32.1429 22.5 32.1429ZM23.5714 7.5C23.5714 8.09173 23.0917 8.57143 22.5 8.57143C21.9083 8.57143 21.4286 8.09173 21.4286 7.5V1.07143C21.4286 0.479695 21.9083 0 22.5 0C23.0917 0 23.5714 0.479695 23.5714 1.07143V7.5ZM23.5714 43.9286C23.5714 44.5203 23.0917 45 22.5 45C21.9083 45 21.4286 44.5203 21.4286 43.9286V37.5C21.4286 36.9083 21.9083 36.4286 22.5 36.4286C23.0917 36.4286 23.5714 36.9083 23.5714 37.5V43.9286ZM33.8642 12.651C33.4458 13.0694 32.7674 13.0694 32.349 12.651C31.9306 12.2326 31.9306 11.5542 32.349 11.1358L36.7424 6.74239C37.1608 6.32397 37.8392 6.32397 38.2576 6.74239C38.676 7.1608 38.676 7.8392 38.2576 8.25761L33.8642 12.651ZM8.25761 38.2576C7.8392 38.676 7.1608 38.676 6.74239 38.2576C6.32397 37.8392 6.32397 37.1608 6.74239 36.7424L11.1358 32.349C11.5542 31.9306 12.2326 31.9306 12.651 32.349C13.0694 32.7674 13.0694 33.4458 12.651 33.8642L8.25761 38.2576ZM37.5 23.5714C36.9083 23.5714 36.4286 23.0917 36.4286 22.5C36.4286 21.9083 36.9083 21.4286 37.5 21.4286H43.9286C44.5203 21.4286 45 21.9083 45 22.5C45 23.0917 44.5203 23.5714 43.9286 23.5714H37.5ZM1.07143 23.5714C0.479695 23.5714 0 23.0917 0 22.5C0 21.9083 0.479695 21.4286 1.07143 21.4286H7.5C8.09173 21.4286 8.57143 21.9083 8.57143 22.5C8.57143 23.0917 8.09173 23.5714 7.5 23.5714H1.07143ZM32.349 33.8642C31.9306 33.4458 31.9306 32.7674 32.349 32.349C32.7674 31.9306 33.4458 31.9306 33.8642 32.349L38.2576 36.7424C38.676 37.1608 38.676 37.8392 38.2576 38.2576C37.8392 38.676 37.1608 38.676 36.7424 38.2576L32.349 33.8642ZM6.74239 8.25761C6.32397 7.8392 6.32397 7.1608 6.74239 6.74239C7.1608 6.32397 7.8392 6.32397 8.25761 6.74239L12.651 11.1358C13.0694 11.5542 13.0694 12.2326 12.651 12.651C12.2326 13.0694 11.5542 13.0694 11.1358 12.651L6.74239 8.25761Z" fill="#F5FD63"/>
</svg>
