<svg width="716" height="716" viewBox="0 0 716 716" fill="none" xmlns="http://www.w3.org/2000/svg">
<g clip-path="url(#clip0_16_3254)">
<g opacity="0.4">
<path d="M507.481 290.9L611.729 283.726C618.84 283.235 621.409 292.975 614.965 296.055L520.708 341.2C515.467 343.759 515.926 351.349 521.471 353.212L620.489 386.472C627.281 388.719 625.934 398.715 618.77 399.098L514.431 404.729C508.625 405.046 506.135 412.289 510.516 416.11L589.312 484.738C594.723 489.446 589.636 498.156 582.898 495.748L484.374 461.056C478.856 459.113 473.825 464.814 476.383 470.056L522.919 563.634C526.052 570.053 518.089 576.125 512.784 571.363L435.011 501.575C430.656 497.674 423.811 501.015 424.207 506.848L431.382 611.095C431.873 618.207 422.133 620.777 419.054 614.331L373.907 520.075C371.348 514.833 363.759 515.292 361.896 520.839L328.636 619.854C326.388 626.648 316.393 625.301 316.01 618.138L310.38 513.797C310.063 507.992 302.82 505.501 298.997 509.883L230.371 588.678C225.661 594.09 216.953 589.002 219.36 582.265L254.052 483.74C255.994 478.222 250.293 473.191 245.052 475.749L151.474 522.287C145.056 525.419 138.983 517.455 143.745 512.152L213.534 434.377C217.436 430.023 214.094 423.177 208.26 423.573L104.012 430.749C96.9004 431.239 94.3326 421.5 100.776 418.421L195.034 373.274C200.275 370.716 199.815 363.125 194.271 361.263L95.2529 328.003C88.4608 325.755 89.8069 315.76 96.9707 315.376L201.31 309.746C207.116 309.429 209.608 302.186 205.226 298.365L126.429 229.737C121.018 225.028 126.105 216.32 132.843 218.726L231.367 253.419C236.885 255.361 241.916 249.66 239.358 244.419L192.822 150.84C189.689 144.422 197.652 138.35 202.957 143.112L280.73 212.9C285.085 216.801 291.93 213.46 291.534 207.627L284.28 103.352C283.789 96.2399 293.528 93.6716 296.608 100.116L341.754 194.373C344.312 199.614 351.903 199.154 353.765 193.609L387.079 94.566C389.327 87.7735 399.322 89.12 399.706 96.2837L405.336 200.623C405.654 206.429 412.895 208.92 416.717 204.538L485.344 125.743C490.054 120.331 498.763 125.419 496.356 132.156L461.663 230.68C459.721 236.199 465.422 241.23 470.663 238.672L564.242 192.135C570.66 189.003 576.732 196.966 571.97 202.269L502.182 280.043C498.281 284.398 501.622 291.244 507.455 290.848L507.481 290.9Z" stroke="#0551FF" stroke-width="3" stroke-miterlimit="10"/>
<path d="M458.58 312.979L528.879 308.141C533.675 307.81 535.407 314.378 531.062 316.455L467.5 346.898C463.965 348.623 464.276 353.742 468.014 354.998L534.786 377.426C539.366 378.942 538.458 385.682 533.627 385.941L463.267 389.738C459.352 389.952 457.672 394.836 460.628 397.413L513.762 443.691C517.412 446.866 513.981 452.739 509.437 451.116L442.999 427.722C439.277 426.412 435.885 430.256 437.61 433.791L468.991 496.894C471.103 501.221 465.735 505.317 462.157 502.106L409.711 455.044C406.775 452.413 402.158 454.667 402.426 458.6L407.265 528.899C407.596 533.694 401.027 535.426 398.951 531.081L368.507 467.52C366.782 463.986 361.664 464.295 360.407 468.035L337.979 534.806C336.463 539.386 329.724 538.478 329.464 533.648L325.667 463.288C325.454 459.372 320.57 457.692 317.993 460.647L271.715 513.781C268.54 517.431 262.667 514 264.289 509.457L287.684 443.018C288.994 439.298 285.149 435.904 281.615 437.629L218.511 469.012C214.184 471.124 210.089 465.754 213.3 462.176L260.361 409.731C262.992 406.795 260.739 402.179 256.805 402.445L186.507 407.283C181.712 407.615 179.979 401.047 184.324 398.971L247.886 368.526C251.42 366.801 251.11 361.683 247.371 360.426L180.599 337.998C176.02 336.482 176.928 329.743 181.758 329.483L252.119 325.688C256.034 325.473 257.714 320.589 254.758 318.012L201.623 271.734C197.975 268.558 201.405 262.686 205.948 264.309L272.387 287.704C276.108 289.014 279.501 285.169 277.776 281.634L246.394 218.531C244.282 214.203 249.652 210.108 253.229 213.32L305.674 260.38C308.61 263.011 313.227 260.757 312.959 256.824L308.068 186.508C307.737 181.712 314.304 179.98 316.381 184.326L346.825 247.887C348.55 251.421 353.668 251.112 354.925 247.372L377.389 180.583C378.905 176.003 385.646 176.911 385.904 181.742L389.701 252.102C389.914 256.017 394.798 257.697 397.375 254.743L443.653 201.606C446.829 197.958 452.701 201.388 451.078 205.931L427.683 272.37C426.374 276.091 430.218 279.484 433.753 277.759L496.857 246.378C501.184 244.265 505.279 249.635 502.068 253.212L455.007 305.657C452.377 308.595 454.63 313.211 458.563 312.943L458.58 312.979Z" stroke="#054FF9" stroke-width="3" stroke-miterlimit="10"/>
<path d="M408.128 335.326L443.277 332.908C445.675 332.742 446.541 336.026 444.368 337.065L412.588 352.286C410.82 353.149 410.975 355.708 412.844 356.337L446.23 367.55C448.52 368.309 448.066 371.678 445.651 371.808L410.471 373.706C408.513 373.813 407.674 376.255 409.151 377.543L435.719 400.682C437.543 402.27 435.828 405.207 433.557 404.396L400.336 392.698C398.477 392.043 396.779 393.966 397.642 395.732L413.333 427.285C414.389 429.448 411.704 431.495 409.916 429.89L383.693 406.359C382.224 405.045 379.917 406.171 380.051 408.137L382.469 443.287C382.635 445.684 379.351 446.55 378.313 444.378L363.091 412.597C362.228 410.83 359.669 410.986 359.041 412.855L347.827 446.24C347.069 448.53 343.698 448.076 343.57 445.661L341.671 410.48C341.564 408.524 339.122 407.683 337.833 409.161L314.695 435.728C313.106 437.552 310.171 435.838 310.981 433.566L322.679 400.347C323.334 398.486 321.412 396.79 319.644 397.653L288.093 413.343C285.93 414.399 283.881 411.714 285.487 409.926L309.018 383.702C310.333 382.235 309.206 379.926 307.24 380.06L272.091 382.48C269.692 382.644 268.827 379.361 270.999 378.323L302.78 363.101C304.547 362.238 304.392 359.679 302.523 359.051L269.137 347.836C266.847 347.079 267.301 343.709 269.716 343.579L304.896 341.681C306.854 341.574 307.694 339.133 306.216 337.844L279.649 314.704C277.824 313.117 279.539 310.18 281.812 310.992L315.03 322.689C316.891 323.344 318.588 321.422 317.725 319.654L302.034 288.103C300.978 285.939 303.663 283.891 305.452 285.498L331.675 309.027C333.143 310.343 335.45 309.217 335.317 307.249L332.871 272.092C332.705 269.694 335.989 268.827 337.028 271L352.249 302.781C353.112 304.548 355.672 304.393 356.299 302.523L367.532 269.129C368.289 266.838 371.66 267.293 371.789 269.707L373.687 304.888C373.795 306.846 376.236 307.686 377.525 306.208L400.663 279.641C402.252 277.816 405.188 279.532 404.377 281.803L392.679 315.023C392.024 316.883 393.946 318.58 395.714 317.717L427.266 302.027C429.43 300.97 431.477 303.654 429.871 305.444L406.341 331.666C405.025 333.134 406.152 335.443 408.119 335.308L408.128 335.326Z" stroke="#054FF9" stroke-width="3" stroke-miterlimit="10"/>
</g>
</g>
<defs>
<clipPath id="clip0_16_3254">
<rect width="534.921" height="534.921" fill="white" transform="translate(480.713 0.000244141) rotate(63.9828)"/>
</clipPath>
</defs>
</svg>
