<svg width="190" height="54" viewBox="0 0 190 54" fill="none" xmlns="http://www.w3.org/2000/svg">
<path d="M32 52.5C28.8485 54.3491 25.3586 54.4023 22 53C18.1928 51.4488 15.8497 48.0139 14.8375 43.0872V43.112C14.8375 43.112 14.7227 42.3178 14.1359 42.293C13.5494 42.2806 13.5149 43.1865 13.5149 43.1865V43.1617L13.5149 54H0L0 1.52588e-05H16.6779L16.6779 13.9611C16.6779 14.1227 16.8045 14.2589 16.9541 14.2589H26.8457C29.4796 14.2589 31.7687 15.289 33.6436 17.2994C35.5067 19.3223 36.4615 21.7918 36.4615 24.6337V44.3034C36.4615 47.8278 35.0712 50.713 32 52.5ZM18.3228 18.2054C18.3228 18.0441 18.1961 17.9076 18.0466 17.9076H16.9654C16.8159 17.9076 16.6895 18.0441 16.6895 18.2054L16.6895 37.9618C16.6895 38.8926 17.1381 39.4635 18.0008 39.5876C18.0927 39.5876 18.1616 39.5876 18.2193 39.513C18.2883 39.451 18.3228 39.3643 18.3228 39.2897L18.3228 18.1929V18.2054Z" fill="black"/>
<path d="M158 52.5C161.151 54.3491 164.641 54.4023 168 53C171.807 51.4488 174.15 48.0139 175.162 43.0872V43.112C175.162 43.112 175.277 42.3177 175.864 42.2929C176.451 42.2805 176.485 43.1864 176.485 43.1864V43.1616V54H190V-1.52588e-05H173.322V13.9611C173.322 14.1226 173.195 14.2589 173.046 14.2589H163.154C160.52 14.2589 158.231 15.289 156.356 17.2994C154.493 19.3222 153.539 21.7918 153.539 24.6336V44.3033C153.539 47.8277 154.929 50.713 158 52.5ZM171.677 18.2054C171.677 18.0441 171.804 17.9076 171.953 17.9076H173.035C173.184 17.9076 173.31 18.0441 173.31 18.2054V37.9618C173.31 38.8926 172.862 39.4635 171.999 39.5875C171.907 39.5875 171.838 39.5875 171.781 39.513C171.712 39.451 171.677 39.3642 171.677 39.2897V18.1929V18.2054Z" fill="black"/>
<path d="M65.4562 13.8715C62.8212 13.0723 59.9156 12.6537 56.8187 12.6537C53.7218 12.6537 50.8164 13.0723 48.1474 13.8715C45.5121 14.6833 43.2823 16.0279 41.5368 17.8544C39.8026 19.6557 38.9355 21.7994 38.9355 24.1967V42.2597C38.9355 44.6571 39.814 46.7754 41.5368 48.5511C43.2823 50.3524 45.5121 51.697 48.1587 52.5341C50.8164 53.3712 53.7331 53.8027 56.8187 53.8027C59.9045 53.8027 62.8212 53.3712 65.4562 52.5341C68.069 51.697 70.2875 50.3524 72.033 48.5511C73.7561 46.7754 74.6232 44.6571 74.6232 42.2597V31.5H58.294V47.4476C58.294 48.399 57.8548 48.9698 57.0102 49.1094C56.9313 49.1094 56.8524 49.0838 56.7962 49.0332C56.7398 48.9698 56.6949 48.8809 56.6949 48.8049V31.8836C56.6949 31.7187 58.1587 31.7653 58.3051 31.7653L74.6232 31.8836V24.1841C74.6232 21.7867 73.7448 19.643 72.033 17.8418C70.2875 16.0152 68.069 14.6706 65.4562 13.8588V13.8715ZM58.3051 27.9387C58.3051 28.1035 58.1814 28.2431 58.035 28.2431H56.8203C56.6852 28.2431 56.706 28.1035 56.706 27.9387V18.9961C56.706 17.9813 57.1566 17.3724 58.0012 17.2456C58.0801 17.2456 58.1476 17.2456 58.2152 17.3217C58.2714 17.3851 58.3051 17.4739 58.3051 17.55V27.9514V27.9387Z" fill="black"/>
<path d="M141.999 14.2133C139.414 13.4171 136.565 13 133.539 13C130.512 13 127.641 13.4171 125.034 14.2133C122.439 15.0222 120.252 16.3619 118.54 18.1819C116.85 19.9766 116 22.1125 116 24.5012V42.4988C116 44.8875 116.861 46.9981 118.54 48.7675C120.252 50.5623 122.439 51.9019 125.034 52.736C127.641 53.5701 130.501 54 133.539 54C136.576 54 139.414 53.5701 141.999 52.736C144.561 51.9019 146.737 50.5623 148.449 48.7675C150.15 46.9981 151 44.8875 151 42.4988V33.9675H134.985V47.668C134.985 48.6159 134.544 49.1846 133.715 49.3237C133.638 49.3237 133.572 49.2982 133.505 49.2478C133.45 49.1846 133.417 49.096 133.417 49.0204V32.4636C133.417 32.2993 133.539 32.1602 133.682 32.1602H151V24.4886C151 22.0999 150.139 19.964 148.449 18.1693C146.737 16.3493 144.561 15.0096 141.999 14.2007V14.2133ZM134.997 28.2296C134.997 28.3939 134.875 28.533 134.731 28.533H133.693C133.55 28.533 133.428 28.3939 133.428 28.2296V19.3194C133.428 18.3083 133.859 17.7016 134.687 17.5752C134.776 17.5752 134.842 17.5752 134.897 17.6511C134.963 17.7143 134.997 17.8027 134.997 17.8786V28.2424V28.2296Z" fill="black"/>
<path d="M110.033 3.05176e-05L97.0756 4.20757V7.84079C97.0756 7.91571 97.054 7.99061 97 8.04055V53H113.927V14.046C113.927 13.9586 113.957 13.8962 114 13.8337L113.927 0.0125158H110.033V3.05176e-05Z" fill="black"/>
<path d="M95 13H77V53H95V13Z" fill="black"/>
<path d="M92.4053 1.62731C90.6499 0.549502 88.4898 3.05176e-05 86 3.05176e-05C83.5124 3.05176e-05 81.3523 0.549502 79.5968 1.63788C77.852 2.70513 77 3.96257 77 5.46304C77 6.96354 77.852 8.24212 79.5968 9.34106C81.3523 10.4506 83.5124 11 86 11C88.4898 11 90.6499 10.44 92.4053 9.34106C94.1501 8.23154 95 6.9741 95 5.46304C95 3.952 94.1501 2.70513 92.4053 1.62731Z" fill="black"/>
<path d="M57.5 28V33" stroke="#FCF0C8" stroke-width="1.6"/>
</svg>
