<svg width="972" height="504" viewBox="0 0 972 504" fill="none" xmlns="http://www.w3.org/2000/svg">
<path d="M812.614 310C812.614 363.24 767.369 411.601 693.841 446.685C620.353 481.751 518.791 503.453 406.581 503.453C294.37 503.453 192.808 481.751 119.321 446.685C45.7918 411.601 0.546875 363.24 0.546875 310C0.546875 256.76 45.7918 208.399 119.321 173.314C192.808 138.25 294.37 116.546 406.581 116.546C518.791 116.546 620.353 138.25 693.841 173.314C767.369 208.399 812.614 256.76 812.614 310Z" stroke="#DC2B46" stroke-opacity="0.4" stroke-width="1.09296"/>
<path d="M201.872 493.141C183.7 442.256 172.932 379.944 172.932 312.712C172.932 140.644 243.06 1.0223 329.612 1.0223C416.162 1.0223 486.291 140.521 486.291 312.712C486.291 388.178 479.674 438.591 457.195 492.547" stroke="#DC2B46" stroke-opacity="0.72" stroke-width="0.918685"/>
<path d="M112.955 493C95.7794 445.458 90 401.36 90 334.648C90 183.028 143.264 60 209 60C274.736 60 328 182.92 328 334.648C328 393.887 319.838 448.164 306.036 493" stroke="#DC2B46" stroke-opacity="0.72" stroke-width="0.918685"/>
<path d="M659.226 495C646.526 453.123 639 401.842 639 346.513C639 204.905 688.011 90 748.5 90C808.988 90 858 204.804 858 346.513C858 408.619 853.375 450.107 837.665 494.512" stroke="#DC2B46" stroke-opacity="0.72" stroke-width="0.918685"/>
<path d="M553.527 493.998C530.914 440.043 523.305 389.998 523.305 314.288C523.305 142.219 593.434 2.59734 679.984 2.59734C766.534 2.59734 836.664 142.096 836.664 314.288C836.664 381.517 825.917 443.115 807.745 493.998" stroke="#DC2B46" stroke-opacity="0.72" stroke-width="0.918685"/>
<path d="M971 349C971 269.471 775.574 205 534.5 205C293.428 205 98 269.471 98 349C98 428.529 293.428 493 534.5 493C775.574 493 971 428.529 971 349Z" stroke="#DC2B46" stroke-opacity="0.72" stroke-width="0.918685"/>
</svg>
