<svg width="17" height="18" viewBox="0 0 17 18" fill="none" xmlns="http://www.w3.org/2000/svg">
<path d="M8.04688 5.11895L6.45675 0.953125L6.48417 5.44993L3.51775 2.24853L5.1627 6.38582L1.26415 4.6396L4.27991 7.79535L0.046875 7.76112L3.96737 9.45028L0.046875 11.1451L4.27991 11.1109L1.26415 14.2666L5.1627 12.5147L3.51775 16.6577L6.48417 13.4563L6.45675 17.9531L8.04688 13.7873L9.637 17.9531L9.60958 13.4563L12.576 16.6577L10.9311 12.5147L14.8296 14.2666L11.8139 11.1109L16.0469 11.1451L12.1264 9.45028L16.0469 7.76112L11.8139 7.79535L14.8296 4.6396L10.9311 6.38582L12.576 2.24853L9.60958 5.44993L9.637 0.953125L8.04688 5.11895Z" fill="#E8E8E8"/>
</svg>
