<svg width="16" height="18" viewBox="0 0 16 18" fill="none" xmlns="http://www.w3.org/2000/svg">
<g clip-path="url(#clip0_5_609)">
<path d="M7.77202 8.09668L7.42383 16.0996H8.57511L8.22692 8.09668H7.77202Z" fill="#E8E8E8"/>
<path d="M7.42383 0.09375H8.57511L8.22692 8.09659H7.77202L7.42383 0.09375Z" fill="#E8E8E8"/>
<path d="M15.9999 7.52368V8.66935L7.99707 8.32116V7.87188L15.9999 7.52368Z" fill="#E8E8E8"/>
<path d="M0 8.66935V7.52368L7.99721 7.87188V8.32116L0 8.66935Z" fill="#E8E8E8"/>
<path d="M14.0624 13.3476L13.2537 14.162L7.83984 8.25395L8.15996 7.93384L14.0624 13.3476Z" fill="#E8E8E8"/>
<path d="M1.9375 2.84557L2.74621 2.03125L8.16005 7.9337L7.83994 8.25381L1.9375 2.84557Z" fill="#E8E8E8"/>
<path d="M13.2537 2.03125L14.0624 2.84557L8.15996 8.25381L7.83984 7.9337L13.2537 2.03125Z" fill="#E8E8E8"/>
<path d="M2.74621 14.162L1.9375 13.3476L7.83994 7.93384L8.16005 8.25956L2.74621 14.162Z" fill="#E8E8E8"/>
</g>
<defs>
<clipPath id="clip0_5_609">
<rect width="16" height="17" fill="white" transform="translate(0 0.09375)"/>
</clipPath>
</defs>
</svg>
