<svg width="16" height="18" viewBox="0 0 16 18" fill="none" xmlns="http://www.w3.org/2000/svg">
<g clip-path="url(#clip0_5_646)">
<path d="M11.7446 9.45307C11.7446 11.5587 10.1389 13.2587 8.16282 13.2587C6.18668 13.2587 4.58105 11.5527 4.58105 9.45307C4.58105 7.35342 6.18668 5.64746 8.16282 5.64746C10.1389 5.64746 11.7446 7.35342 11.7446 9.45307Z" fill="#E8E8E8"/>
<path d="M8.16282 13.2587C10.141 13.2587 11.7446 11.5548 11.7446 9.45307C11.7446 7.35129 10.141 5.64746 8.16282 5.64746C6.18467 5.64746 4.58105 7.35129 4.58105 9.45307C4.58105 11.5548 6.18467 13.2587 8.16282 13.2587Z" stroke="#E8E8E8" stroke-width="0.36" stroke-miterlimit="10"/>
<path d="M8 0.953125V17.9531M0 9.45312H16" stroke="#E8E8E8" stroke-width="1.08" stroke-miterlimit="10"/>
</g>
<defs>
<clipPath id="clip0_5_646">
<rect width="16" height="17" fill="white" transform="translate(0 0.953125)"/>
</clipPath>
</defs>
</svg>
