<svg width="24" height="25" viewBox="0 0 24 25" fill="none" xmlns="http://www.w3.org/2000/svg">
<path d="M16.5 0.72998H7.5C3.3585 0.72998 0 4.08848 0 8.22998V17.23C0 21.3715 3.3585 24.73 7.5 24.73H16.5C20.6415 24.73 24 21.3715 24 17.23V8.22998C24 4.08848 20.6415 0.72998 16.5 0.72998ZM21.75 17.23C21.75 20.125 19.395 22.48 16.5 22.48H7.5C4.605 22.48 2.25 20.125 2.25 17.23V8.22998C2.25 5.33498 4.605 2.97998 7.5 2.97998H16.5C19.395 2.97998 21.75 5.33498 21.75 8.22998V17.23Z" fill="#E8E8E8"/>
<path d="M12 6.72998C8.6865 6.72998 6 9.41648 6 12.73C6 16.0435 8.6865 18.73 12 18.73C15.3135 18.73 18 16.0435 18 12.73C18 9.41648 15.3135 6.72998 12 6.72998ZM12 16.48C9.933 16.48 8.25 14.797 8.25 12.73C8.25 10.6615 9.933 8.97998 12 8.97998C14.067 8.97998 15.75 10.6615 15.75 12.73C15.75 14.797 14.067 16.48 12 16.48Z" fill="#E8E8E8"/>
<path d="M18.4499 7.07947C18.8915 7.07947 19.2494 6.72151 19.2494 6.27997C19.2494 5.83841 18.8915 5.48047 18.4499 5.48047C18.0083 5.48047 17.6504 5.83841 17.6504 6.27997C17.6504 6.72151 18.0083 7.07947 18.4499 7.07947Z" fill="#E8E8E8"/>
</svg>
