<svg width="24" height="25" viewBox="0 0 24 25" fill="none" xmlns="http://www.w3.org/2000/svg">
<path d="M5.367 8.22998H0V24.73H5.367V8.22998Z" fill="#E8E8E8"/>
<path d="M19.986 8.42348C19.929 8.40548 19.875 8.38598 19.815 8.36948C19.743 8.35298 19.671 8.33948 19.5975 8.32748C19.3125 8.27048 19.0005 8.22998 18.6345 8.22998C15.5055 8.22998 13.521 10.5055 12.867 11.3845V8.22998H7.5V24.73H12.867V15.73C12.867 15.73 16.923 10.081 18.6345 14.23C18.6345 17.9335 18.6345 24.73 18.6345 24.73H24V13.5955C24 11.1025 22.2915 9.02498 19.986 8.42348Z" fill="#E8E8E8"/>
<path d="M2.625 5.97998C4.07475 5.97998 5.25 4.80473 5.25 3.35498C5.25 1.90523 4.07475 0.72998 2.625 0.72998C1.17525 0.72998 0 1.90523 0 3.35498C0 4.80473 1.17525 5.97998 2.625 5.97998Z" fill="#E8E8E8"/>
</svg>
