<svg width="24" height="25" viewBox="0 0 24 25" fill="none" xmlns="http://www.w3.org/2000/svg">
<path d="M12.326 0.72998C5.74815 0.72998 2.25 4.94517 2.25 9.54137C2.25 11.673 3.44104 14.3311 5.34763 15.1741C5.63715 15.3046 5.79465 15.2491 5.85915 14.9806C5.91615 14.7766 6.16667 13.7941 6.28817 13.3305C6.32567 13.182 6.30617 13.053 6.18617 12.9135C5.55313 12.1815 5.05061 10.8479 5.05061 9.59687C5.05061 6.39124 7.59923 3.27859 11.9359 3.27859C15.6861 3.27859 18.3097 5.7147 18.3097 9.19936C18.3097 13.137 16.2261 15.8612 13.5185 15.8612C12.0199 15.8612 10.9039 14.6851 11.2579 13.23C11.6854 11.4975 12.524 9.63437 12.524 8.38482C12.524 7.26428 11.8909 6.33722 10.5979 6.33722C9.0723 6.33722 7.83474 7.8478 7.83474 9.87589C7.83474 11.1644 8.29076 12.0345 8.29076 12.0345C8.29076 12.0345 6.78169 18.1308 6.50119 19.2693C6.02717 21.1969 6.56569 24.3186 6.61219 24.5871C6.64069 24.7356 6.80719 24.7821 6.90021 24.6606C7.04871 24.4656 8.87278 21.8629 9.38432 19.9819C9.57032 19.2963 10.3339 16.5167 10.3339 16.5167C10.8364 17.4242 12.2869 18.1848 13.832 18.1848C18.4282 18.1848 21.7494 14.1451 21.7494 9.13186C21.7329 4.32565 17.6197 0.72998 12.326 0.72998Z" fill="#E8E8E8"/>
</svg>
