<svg width="972" height="504" viewBox="0 0 972 504" fill="none" xmlns="http://www.w3.org/2000/svg">
<path d="M533.744 167C533.744 168.982 532.138 170.582 530.162 170.582C528.186 170.582 526.58 168.976 526.58 167C526.58 165.024 528.186 163.418 530.162 163.418C532.138 163.418 533.744 165.024 533.744 167Z" fill="#DC2B46"/>
<path d="M530.162 170.582C532.14 170.582 533.744 168.978 533.744 167C533.744 165.022 532.14 163.418 530.162 163.418C528.184 163.418 526.58 165.022 526.58 167C526.58 168.978 528.184 170.582 530.162 170.582Z" stroke="#DC2B46" stroke-width="0.36" stroke-miterlimit="10"/>
<path d="M530 159V175M522 167H538" stroke="#DC2B46" stroke-width="1.08" stroke-miterlimit="10"/>
<g clip-path="url(#clip0_32_19)">
<path d="M295.744 404C295.744 405.982 294.138 407.582 292.162 407.582C290.186 407.582 288.58 405.976 288.58 404C288.58 402.024 290.186 400.418 292.162 400.418C294.138 400.418 295.744 402.024 295.744 404Z" fill="#DC2B46"/>
<path d="M292.162 407.582C294.14 407.582 295.744 405.978 295.744 404C295.744 402.022 294.14 400.418 292.162 400.418C290.184 400.418 288.58 402.022 288.58 404C288.58 405.978 290.184 407.582 292.162 407.582Z" stroke="#DC2B46" stroke-width="0.36" stroke-miterlimit="10"/>
<path d="M292 396V412M284 404H300" stroke="#DC2B46" stroke-width="1.08" stroke-miterlimit="10"/>
</g>
<g clip-path="url(#clip1_32_19)">
<path d="M212.744 436C212.744 437.982 211.138 439.582 209.162 439.582C207.186 439.582 205.58 437.976 205.58 436C205.58 434.024 207.186 432.418 209.162 432.418C211.138 432.418 212.744 434.024 212.744 436Z" fill="#DC2B46"/>
<path d="M209.162 439.582C211.14 439.582 212.744 437.978 212.744 436C212.744 434.022 211.14 432.418 209.162 432.418C207.184 432.418 205.58 434.022 205.58 436C205.58 437.978 207.184 439.582 209.162 439.582Z" stroke="#DC2B46" stroke-width="0.36" stroke-miterlimit="10"/>
<path d="M209 428V444M201 436H217" stroke="#DC2B46" stroke-width="1.08" stroke-miterlimit="10"/>
</g>
<g clip-path="url(#clip2_32_19)">
<path d="M177.744 420C177.744 421.982 176.138 423.582 174.162 423.582C172.186 423.582 170.58 421.976 170.58 420C170.58 418.024 172.186 416.418 174.162 416.418C176.138 416.418 177.744 418.024 177.744 420Z" fill="#DC2B46"/>
<path d="M174.162 423.582C176.14 423.582 177.744 421.978 177.744 420C177.744 418.022 176.14 416.418 174.162 416.418C172.184 416.418 170.58 418.022 170.58 420C170.58 421.978 172.184 423.582 174.162 423.582Z" stroke="#DC2B46" stroke-width="0.36" stroke-miterlimit="10"/>
<path d="M174 412V428M166 420H182" stroke="#DC2B46" stroke-width="1.08" stroke-miterlimit="10"/>
</g>
<g clip-path="url(#clip3_32_19)">
<path d="M262.872 444C262.872 444.991 262.069 445.791 261.081 445.791C260.093 445.791 259.29 444.988 259.29 444C259.29 443.012 260.093 442.209 261.081 442.209C262.069 442.209 262.872 443.012 262.872 444Z" fill="#DC2B46"/>
<path d="M261.081 445.791C262.07 445.791 262.872 444.989 262.872 444C262.872 443.011 262.07 442.209 261.081 442.209C260.092 442.209 259.29 443.011 259.29 444C259.29 444.989 260.092 445.791 261.081 445.791Z" stroke="#DC2B46" stroke-width="0.36" stroke-miterlimit="10"/>
<path d="M261 440V448M257 444H265" stroke="#DC2B46" stroke-width="1.08" stroke-miterlimit="10"/>
</g>
<g clip-path="url(#clip4_32_19)">
<path d="M479.744 224C479.744 225.982 478.138 227.582 476.162 227.582C474.186 227.582 472.58 225.976 472.58 224C472.58 222.024 474.186 220.418 476.162 220.418C478.138 220.418 479.744 222.024 479.744 224Z" fill="#DC2B46"/>
<path d="M476.162 227.582C478.14 227.582 479.744 225.978 479.744 224C479.744 222.022 478.14 220.418 476.162 220.418C474.184 220.418 472.58 222.022 472.58 224C472.58 225.978 474.184 227.582 476.162 227.582Z" stroke="#DC2B46" stroke-width="0.36" stroke-miterlimit="10"/>
<path d="M476 216V232M468 224H484" stroke="#DC2B46" stroke-width="1.08" stroke-miterlimit="10"/>
</g>
<g clip-path="url(#clip5_32_19)">
<path d="M604.744 224C604.744 225.982 603.138 227.582 601.162 227.582C599.186 227.582 597.58 225.976 597.58 224C597.58 222.024 599.186 220.418 601.162 220.418C603.138 220.418 604.744 222.024 604.744 224Z" fill="#DC2B46"/>
<path d="M601.162 227.582C603.14 227.582 604.744 225.978 604.744 224C604.744 222.022 603.14 220.418 601.162 220.418C599.184 220.418 597.58 222.022 597.58 224C597.58 225.978 599.184 227.582 601.162 227.582Z" stroke="#DC2B46" stroke-width="0.36" stroke-miterlimit="10"/>
<path d="M601 216V232M593 224H609" stroke="#DC2B46" stroke-width="1.08" stroke-miterlimit="10"/>
</g>
<g clip-path="url(#clip6_32_19)">
<path d="M375.872 249C375.872 249.991 375.069 250.791 374.081 250.791C373.093 250.791 372.29 249.988 372.29 249C372.29 248.012 373.093 247.209 374.081 247.209C375.069 247.209 375.872 248.012 375.872 249Z" fill="#DC2B46"/>
<path d="M374.081 250.791C375.07 250.791 375.872 249.989 375.872 249C375.872 248.011 375.07 247.209 374.081 247.209C373.092 247.209 372.29 248.011 372.29 249C372.29 249.989 373.092 250.791 374.081 250.791Z" stroke="#DC2B46" stroke-width="0.36" stroke-miterlimit="10"/>
<path d="M374 245V253M370 249H378" stroke="#DC2B46" stroke-width="1.08" stroke-miterlimit="10"/>
</g>
<g clip-path="url(#clip7_32_19)">
<path d="M365.744 301C365.744 302.982 364.138 304.582 362.162 304.582C360.186 304.582 358.58 302.976 358.58 301C358.58 299.024 360.186 297.418 362.162 297.418C364.138 297.418 365.744 299.024 365.744 301Z" fill="#DC2B46"/>
<path d="M362.162 304.582C364.14 304.582 365.744 302.978 365.744 301C365.744 299.022 364.14 297.418 362.162 297.418C360.184 297.418 358.58 299.022 358.58 301C358.58 302.978 360.184 304.582 362.162 304.582Z" stroke="#DC2B46" stroke-width="0.36" stroke-miterlimit="10"/>
<path d="M362 293V309M354 301H370" stroke="#DC2B46" stroke-width="1.08" stroke-miterlimit="10"/>
</g>
<g clip-path="url(#clip8_32_19)">
<path d="M349.744 317C349.744 318.982 348.138 320.582 346.162 320.582C344.186 320.582 342.58 318.976 342.58 317C342.58 315.024 344.186 313.418 346.162 313.418C348.138 313.418 349.744 315.024 349.744 317Z" fill="#DC2B46"/>
<path d="M346.162 320.582C348.14 320.582 349.744 318.978 349.744 317C349.744 315.022 348.14 313.418 346.162 313.418C344.184 313.418 342.58 315.022 342.58 317C342.58 318.978 344.184 320.582 346.162 320.582Z" stroke="#DC2B46" stroke-width="0.36" stroke-miterlimit="10"/>
<path d="M346 309V325M338 317H354" stroke="#DC2B46" stroke-width="1.08" stroke-miterlimit="10"/>
</g>
<g clip-path="url(#clip9_32_19)">
<path d="M201.744 325C201.744 326.982 200.138 328.582 198.162 328.582C196.186 328.582 194.58 326.976 194.58 325C194.58 323.024 196.186 321.418 198.162 321.418C200.138 321.418 201.744 323.024 201.744 325Z" fill="#DC2B46"/>
<path d="M198.162 328.582C200.14 328.582 201.744 326.978 201.744 325C201.744 323.022 200.14 321.418 198.162 321.418C196.184 321.418 194.58 323.022 194.58 325C194.58 326.978 196.184 328.582 198.162 328.582Z" stroke="#DC2B46" stroke-width="0.36" stroke-miterlimit="10"/>
<path d="M198 317V333M190 325H206" stroke="#DC2B46" stroke-width="1.08" stroke-miterlimit="10"/>
</g>
<g clip-path="url(#clip10_32_19)">
<path d="M325.872 337C325.872 337.991 325.069 338.791 324.081 338.791C323.093 338.791 322.29 337.988 322.29 337C322.29 336.012 323.093 335.209 324.081 335.209C325.069 335.209 325.872 336.012 325.872 337Z" fill="#DC2B46"/>
<path d="M324.081 338.791C325.07 338.791 325.872 337.989 325.872 337C325.872 336.011 325.07 335.209 324.081 335.209C323.092 335.209 322.29 336.011 322.29 337C322.29 337.989 323.092 338.791 324.081 338.791Z" stroke="#DC2B46" stroke-width="0.36" stroke-miterlimit="10"/>
<path d="M324 333V341M320 337H328" stroke="#DC2B46" stroke-width="1.08" stroke-miterlimit="10"/>
</g>
<g clip-path="url(#clip11_32_19)">
<path d="M620.744 316C620.744 317.982 619.138 319.582 617.162 319.582C615.186 319.582 613.58 317.976 613.58 316C613.58 314.024 615.186 312.418 617.162 312.418C619.138 312.418 620.744 314.024 620.744 316Z" fill="#DC2B46"/>
<path d="M617.162 319.582C619.14 319.582 620.744 317.978 620.744 316C620.744 314.022 619.14 312.418 617.162 312.418C615.184 312.418 613.58 314.022 613.58 316C613.58 317.978 615.184 319.582 617.162 319.582Z" stroke="#DC2B46" stroke-width="0.36" stroke-miterlimit="10"/>
<path d="M617 308V324M609 316H625" stroke="#DC2B46" stroke-width="1.08" stroke-miterlimit="10"/>
</g>
<g clip-path="url(#clip12_32_19)">
<path d="M647.744 334C647.744 335.982 646.138 337.582 644.162 337.582C642.186 337.582 640.58 335.976 640.58 334C640.58 332.024 642.186 330.418 644.162 330.418C646.138 330.418 647.744 332.024 647.744 334Z" fill="#DC2B46"/>
<path d="M644.162 337.582C646.14 337.582 647.744 335.978 647.744 334C647.744 332.022 646.14 330.418 644.162 330.418C642.184 330.418 640.58 332.022 640.58 334C640.58 335.978 642.184 337.582 644.162 337.582Z" stroke="#DC2B46" stroke-width="0.36" stroke-miterlimit="10"/>
<path d="M644 326V342M636 334H652" stroke="#DC2B46" stroke-width="1.08" stroke-miterlimit="10"/>
</g>
<g clip-path="url(#clip13_32_19)">
<path d="M472.744 308C472.744 309.982 471.138 311.582 469.162 311.582C467.186 311.582 465.58 309.976 465.58 308C465.58 306.024 467.186 304.418 469.162 304.418C471.138 304.418 472.744 306.024 472.744 308Z" fill="#DC2B46"/>
<path d="M469.162 311.582C471.14 311.582 472.744 309.978 472.744 308C472.744 306.022 471.14 304.418 469.162 304.418C467.184 304.418 465.58 306.022 465.58 308C465.58 309.978 467.184 311.582 469.162 311.582Z" stroke="#DC2B46" stroke-width="0.36" stroke-miterlimit="10"/>
<path d="M469 300V316M461 308H477" stroke="#DC2B46" stroke-width="1.08" stroke-miterlimit="10"/>
</g>
<g clip-path="url(#clip14_32_19)">
<path d="M498.872 278C498.872 278.991 498.069 279.791 497.081 279.791C496.093 279.791 495.29 278.988 495.29 278C495.29 277.012 496.093 276.209 497.081 276.209C498.069 276.209 498.872 277.012 498.872 278Z" fill="#DC2B46"/>
<path d="M497.081 279.791C498.07 279.791 498.872 278.989 498.872 278C498.872 277.011 498.07 276.209 497.081 276.209C496.092 276.209 495.29 277.011 495.29 278C495.29 278.989 496.092 279.791 497.081 279.791Z" stroke="#DC2B46" stroke-width="0.36" stroke-miterlimit="10"/>
<path d="M497 274V282M493 278H501" stroke="#DC2B46" stroke-width="1.08" stroke-miterlimit="10"/>
</g>
<g clip-path="url(#clip15_32_19)">
<path d="M494.872 293C494.872 293.991 494.069 294.791 493.081 294.791C492.093 294.791 491.29 293.988 491.29 293C491.29 292.012 492.093 291.209 493.081 291.209C494.069 291.209 494.872 292.012 494.872 293Z" fill="#DC2B46"/>
<path d="M493.081 294.791C494.07 294.791 494.872 293.989 494.872 293C494.872 292.011 494.07 291.209 493.081 291.209C492.092 291.209 491.29 292.011 491.29 293C491.29 293.989 492.092 294.791 493.081 294.791Z" stroke="#DC2B46" stroke-width="0.36" stroke-miterlimit="10"/>
<path d="M493 289V297M489 293H497" stroke="#DC2B46" stroke-width="1.08" stroke-miterlimit="10"/>
</g>
<g clip-path="url(#clip16_32_19)">
<path d="M428.872 328C428.872 328.991 428.069 329.791 427.081 329.791C426.093 329.791 425.29 328.988 425.29 328C425.29 327.012 426.093 326.209 427.081 326.209C428.069 326.209 428.872 327.012 428.872 328Z" fill="#DC2B46"/>
<path d="M427.081 329.791C428.07 329.791 428.872 328.989 428.872 328C428.872 327.011 428.07 326.209 427.081 326.209C426.092 326.209 425.29 327.011 425.29 328C425.29 328.989 426.092 329.791 427.081 329.791Z" stroke="#DC2B46" stroke-width="0.36" stroke-miterlimit="10"/>
<path d="M427 324V332M423 328H431" stroke="#DC2B46" stroke-width="1.08" stroke-miterlimit="10"/>
</g>
<g clip-path="url(#clip17_32_19)">
<path d="M461.744 366C461.744 367.982 460.138 369.582 458.162 369.582C456.186 369.582 454.58 367.976 454.58 366C454.58 364.024 456.186 362.418 458.162 362.418C460.138 362.418 461.744 364.024 461.744 366Z" fill="#DC2B46"/>
<path d="M458.162 369.582C460.14 369.582 461.744 367.978 461.744 366C461.744 364.022 460.14 362.418 458.162 362.418C456.184 362.418 454.58 364.022 454.58 366C454.58 367.978 456.184 369.582 458.162 369.582Z" stroke="#DC2B46" stroke-width="0.36" stroke-miterlimit="10"/>
<path d="M458 358V374M450 366H466" stroke="#DC2B46" stroke-width="1.08" stroke-miterlimit="10"/>
</g>
<g clip-path="url(#clip18_32_19)">
<path d="M413.744 274C413.744 275.982 412.138 277.582 410.162 277.582C408.186 277.582 406.58 275.976 406.58 274C406.58 272.024 408.186 270.418 410.162 270.418C412.138 270.418 413.744 272.024 413.744 274Z" fill="#DC2B46"/>
<path d="M410.162 277.582C412.14 277.582 413.744 275.978 413.744 274C413.744 272.022 412.14 270.418 410.162 270.418C408.184 270.418 406.58 272.022 406.58 274C406.58 275.978 408.184 277.582 410.162 277.582Z" stroke="#DC2B46" stroke-width="0.36" stroke-miterlimit="10"/>
<path d="M410 266V282M402 274H418" stroke="#DC2B46" stroke-width="1.08" stroke-miterlimit="10"/>
</g>
<g clip-path="url(#clip19_32_19)">
<path d="M298.872 384C298.872 384.991 298.069 385.791 297.081 385.791C296.093 385.791 295.29 384.988 295.29 384C295.29 383.012 296.093 382.209 297.081 382.209C298.069 382.209 298.872 383.012 298.872 384Z" fill="#DC2B46"/>
<path d="M297.081 385.791C298.07 385.791 298.872 384.989 298.872 384C298.872 383.011 298.07 382.209 297.081 382.209C296.092 382.209 295.29 383.011 295.29 384C295.29 384.989 296.092 385.791 297.081 385.791Z" stroke="#DC2B46" stroke-width="0.36" stroke-miterlimit="10"/>
<path d="M297 380V388M293 384H301" stroke="#DC2B46" stroke-width="1.08" stroke-miterlimit="10"/>
</g>
<g clip-path="url(#clip20_32_19)">
<path d="M149.872 388C149.872 388.991 149.069 389.791 148.081 389.791C147.093 389.791 146.29 388.988 146.29 388C146.29 387.012 147.093 386.209 148.081 386.209C149.069 386.209 149.872 387.012 149.872 388Z" fill="#DC2B46"/>
<path d="M148.081 389.791C149.07 389.791 149.872 388.989 149.872 388C149.872 387.011 149.07 386.209 148.081 386.209C147.092 386.209 146.29 387.011 146.29 388C146.29 388.989 147.092 389.791 148.081 389.791Z" stroke="#DC2B46" stroke-width="0.36" stroke-miterlimit="10"/>
<path d="M148 384V392M144 388H152" stroke="#DC2B46" stroke-width="1.08" stroke-miterlimit="10"/>
</g>
<g clip-path="url(#clip21_32_19)">
<path d="M162.872 358C162.872 358.991 162.069 359.791 161.081 359.791C160.093 359.791 159.29 358.988 159.29 358C159.29 357.012 160.093 356.209 161.081 356.209C162.069 356.209 162.872 357.012 162.872 358Z" fill="#DC2B46"/>
<path d="M161.081 359.791C162.07 359.791 162.872 358.989 162.872 358C162.872 357.011 162.07 356.209 161.081 356.209C160.092 356.209 159.29 357.011 159.29 358C159.29 358.989 160.092 359.791 161.081 359.791Z" stroke="#DC2B46" stroke-width="0.36" stroke-miterlimit="10"/>
<path d="M161 354V362M157 358H165" stroke="#DC2B46" stroke-width="1.08" stroke-miterlimit="10"/>
</g>
<path d="M812.614 310C812.614 363.24 767.369 411.602 693.841 446.685C620.353 481.751 518.791 503.454 406.581 503.454C294.37 503.454 192.808 481.751 119.321 446.685C45.7918 411.602 0.546875 363.24 0.546875 310C0.546875 256.76 45.7918 208.399 119.321 173.315C192.808 138.25 294.37 116.547 406.581 116.547C518.791 116.547 620.353 138.25 693.841 173.315C767.369 208.399 812.614 256.76 812.614 310Z" stroke="#DC2B46" stroke-opacity="0.4" stroke-width="1.09296"/>
<path d="M201.872 493.141C183.7 442.256 172.932 379.944 172.932 312.713C172.932 140.644 243.06 1.02254 329.612 1.02254C416.162 1.02254 486.291 140.521 486.291 312.713C486.291 388.179 479.674 438.591 457.195 492.547" stroke="#DC2B46" stroke-opacity="0.72" stroke-width="0.918685"/>
<path d="M112.955 493C95.7794 445.458 90 401.36 90 334.648C90 183.029 143.264 60.0002 209 60.0002C274.736 60.0002 328 182.92 328 334.648C328 393.887 319.838 448.165 306.036 493" stroke="#DC2B46" stroke-opacity="0.72" stroke-width="0.918685"/>
<path d="M659.226 495C646.526 453.124 639 401.842 639 346.513C639 204.905 688.011 90.0003 748.5 90.0003C808.988 90.0003 858 204.804 858 346.513C858 408.619 853.375 450.107 837.665 494.512" stroke="#DC2B46" stroke-opacity="0.72" stroke-width="0.918685"/>
<path d="M553.527 493.998C530.914 440.043 523.305 389.998 523.305 314.288C523.305 142.219 593.434 2.59758 679.984 2.59758C766.534 2.59758 836.664 142.096 836.664 314.288C836.664 381.517 825.917 443.115 807.745 493.998" stroke="#DC2B46" stroke-opacity="0.72" stroke-width="0.918685"/>
<path d="M971 349.001C971 269.471 775.574 205 534.5 205C293.428 205 98 269.471 98 349.001C98 428.529 293.428 493 534.5 493C775.574 493 971 428.529 971 349.001Z" stroke="#DC2B46" stroke-opacity="0.72" stroke-width="0.918685"/>
<defs>
<clipPath id="clip0_32_19">
<rect width="16" height="16" fill="white" transform="translate(284 396)"/>
</clipPath>
<clipPath id="clip1_32_19">
<rect width="16" height="16" fill="white" transform="translate(201 428)"/>
</clipPath>
<clipPath id="clip2_32_19">
<rect width="16" height="16" fill="white" transform="translate(166 412)"/>
</clipPath>
<clipPath id="clip3_32_19">
<rect width="8" height="8" fill="white" transform="translate(257 440)"/>
</clipPath>
<clipPath id="clip4_32_19">
<rect width="16" height="16" fill="white" transform="translate(468 216)"/>
</clipPath>
<clipPath id="clip5_32_19">
<rect width="16" height="16" fill="white" transform="translate(593 216)"/>
</clipPath>
<clipPath id="clip6_32_19">
<rect width="8" height="8" fill="white" transform="translate(370 245)"/>
</clipPath>
<clipPath id="clip7_32_19">
<rect width="16" height="16" fill="white" transform="translate(354 293)"/>
</clipPath>
<clipPath id="clip8_32_19">
<rect width="16" height="16" fill="white" transform="translate(338 309)"/>
</clipPath>
<clipPath id="clip9_32_19">
<rect width="16" height="16" fill="white" transform="translate(190 317)"/>
</clipPath>
<clipPath id="clip10_32_19">
<rect width="8" height="8" fill="white" transform="translate(320 333)"/>
</clipPath>
<clipPath id="clip11_32_19">
<rect width="16" height="16" fill="white" transform="translate(609 308)"/>
</clipPath>
<clipPath id="clip12_32_19">
<rect width="16" height="16" fill="white" transform="translate(636 326)"/>
</clipPath>
<clipPath id="clip13_32_19">
<rect width="16" height="16" fill="white" transform="translate(461 300)"/>
</clipPath>
<clipPath id="clip14_32_19">
<rect width="8" height="8" fill="white" transform="translate(493 274)"/>
</clipPath>
<clipPath id="clip15_32_19">
<rect width="8" height="8" fill="white" transform="translate(489 289)"/>
</clipPath>
<clipPath id="clip16_32_19">
<rect width="8" height="8" fill="white" transform="translate(423 324)"/>
</clipPath>
<clipPath id="clip17_32_19">
<rect width="16" height="16" fill="white" transform="translate(450 358)"/>
</clipPath>
<clipPath id="clip18_32_19">
<rect width="16" height="16" fill="white" transform="translate(402 266)"/>
</clipPath>
<clipPath id="clip19_32_19">
<rect width="8" height="8" fill="white" transform="translate(293 380)"/>
</clipPath>
<clipPath id="clip20_32_19">
<rect width="8" height="8" fill="white" transform="translate(144 384)"/>
</clipPath>
<clipPath id="clip21_32_19">
<rect width="8" height="8" fill="white" transform="translate(157 354)"/>
</clipPath>
</defs>
</svg>
