<svg width="24" height="25" viewBox="0 0 24 25" fill="none" xmlns="http://www.w3.org/2000/svg">
<path d="M12 0.72998C5.3835 0.72998 0 6.11348 0 12.73C0 19.3465 5.3835 24.73 12 24.73C18.6165 24.73 24 19.3465 24 12.73C24 6.11348 18.6165 0.72998 12 0.72998ZM17.505 18.052C17.358 18.2605 17.127 18.3715 16.8915 18.3715C16.7415 18.3715 16.5915 18.328 16.461 18.235C13.6485 16.258 8.97 16.1485 5.811 16.885C5.4105 16.9795 5.004 16.7275 4.911 16.324C4.818 15.9205 5.067 15.517 5.472 15.4225C8.9445 14.6185 14.1345 14.7655 17.322 17.008C17.661 17.2465 17.742 17.713 17.505 18.052ZM18.969 15.1255C18.822 15.3295 18.5925 15.4375 18.36 15.4375C18.207 15.4375 18.0555 15.3925 17.922 15.2965C14.6595 12.955 10.6515 12.373 5.3025 13.465C4.899 13.5445 4.5 13.2865 4.4175 12.88C4.3335 12.475 4.596 12.0775 5.001 11.995C10.7865 10.8145 15.1695 11.4745 18.7965 14.077C19.1325 14.32 19.2105 14.788 18.969 15.1255ZM20.448 11.1955C20.3025 11.41 20.0655 11.524 19.827 11.524C19.6815 11.524 19.5345 11.482 19.4055 11.395C15.27 8.58848 8.9835 8.57498 4.914 10.015C4.524 10.15 4.095 9.94748 3.957 9.55598C3.819 9.16598 4.023 8.73698 4.4145 8.59898C8.841 7.03448 15.7005 7.06748 20.25 10.153C20.592 10.3855 20.679 10.852 20.448 11.1955Z" fill="#E8E8E8"/>
</svg>
