<svg width="33" height="33" viewBox="0 0 33 33" fill="none" xmlns="http://www.w3.org/2000/svg">
<g clip-path="url(#clip0_16_2851)">
<path d="M26.1913 12.618C26.7551 12.7966 27.0771 13.0982 27.1516 13.5281C27.2261 13.9581 27.0663 14.4165 26.6779 14.8981C26.2613 15.4068 25.759 15.7469 25.1881 15.913C22.989 16.5182 20.4673 16.5827 17.6232 16.0951C19.6486 14.4793 21.8868 13.3352 24.3436 12.6463C25.0097 12.4543 25.6219 12.4447 26.1913 12.618ZM18.5351 6.22739C19.0323 5.8594 19.5356 5.73633 20.0449 5.85828C20.443 5.97782 20.7419 6.32336 20.958 6.90093C21.1345 7.50547 21.1334 8.09527 20.9437 8.65878C20.3716 10.4829 18.9688 12.657 16.7465 15.1811C16.4206 12.6596 16.6443 10.1995 17.4118 7.80637C17.6313 7.14887 18.0094 6.62259 18.5351 6.22739ZM24.1433 23.074C24.1815 23.6479 24.0274 24.1009 23.6698 24.444C23.3462 24.7544 22.8822 24.8616 22.2832 24.7712C21.7114 24.7093 21.2323 24.4712 20.8456 24.0681C19.3753 22.5354 18.1965 20.3632 17.3148 17.5464C19.6344 18.3735 21.6875 19.707 23.4627 21.5577C23.8766 21.9891 24.1109 22.4948 24.1436 23.0629M8.18671 10.235C8.15089 9.54992 8.34019 9.00862 8.75461 8.61109C9.10658 8.27346 9.64321 8.15106 10.3535 8.24379C11.0353 8.36366 11.6022 8.6592 12.0433 9.11905C13.3721 10.5042 14.4957 12.6529 15.4091 15.5483C12.3774 14.456 10.2544 13.2769 9.03454 12.0052C8.53353 11.4829 8.25633 10.8985 8.18671 10.235ZM14.5842 26.5862C14.1142 26.9826 13.6495 27.1231 13.1958 27.0024C12.7977 26.8829 12.5097 26.5486 12.3263 26.0051C12.144 25.406 12.1452 24.8163 12.3406 24.2473C13.1674 21.6774 14.3632 19.5602 15.9335 17.8904C16.3614 20.5866 16.257 22.9323 15.6256 24.9332C15.4049 25.6463 15.054 26.201 14.584 26.5973M6.57033 20.5387C6.03612 20.2772 5.71599 19.8867 5.62104 19.3673C5.51814 18.9645 5.67796 18.5061 6.09464 17.9973C6.51025 17.5442 7.00636 17.2319 7.58273 17.0713C9.78187 16.4662 12.2702 16.4011 15.0586 16.8874C12.6485 18.8069 10.3799 20.0783 8.2421 20.6792C7.65997 20.8451 7.10455 20.8001 6.57033 20.5387Z" fill="black"/>
</g>
<defs>
<clipPath id="clip0_16_2851">
<rect width="22.6721" height="20.1529" fill="white" transform="translate(16.623 31.2035) rotate(-133.808)"/>
</clipPath>
</defs>
</svg>
