<svg width="36" height="36" viewBox="0 0 36 36" fill="none" xmlns="http://www.w3.org/2000/svg">
<path d="M17.5469 8.60795L14.0685 0.03125L14.1284 9.28938L7.63941 2.69824L11.2378 11.2162L2.70966 7.62104L9.30665 14.1182L0.046875 14.0477L8.62296 17.5255L0.046875 21.0148L9.30665 20.9443L2.70966 27.4414L11.2378 23.8345L7.63941 32.3642L14.1284 25.773L14.0685 35.0312L17.5469 26.4546L21.0252 35.0312L20.9653 25.773L27.4544 32.3642L23.8559 23.8345L32.3842 27.4414L25.7871 20.9443L35.0469 21.0148L26.4708 17.5255L35.0469 14.0477L25.7871 14.1182L32.3842 7.62104L23.8559 11.2162L27.4544 2.69824L20.9653 9.28938L21.0252 0.03125L17.5469 8.60795Z" fill="black"/>
</svg>
